# Wavefront OBJ file automatically generated by Tiled2Unity

# Vertices (Count = 470)
v -17 -32 0
v -18 -32 0
v -18 -31 0
v -17 -31 0
v -19 -32 0
v -19 -31 0
v -20 -32 0
v -20 -31 0
v -21 -32 0
v -21 -31 0
v -22 -32 0
v -22 -31 0
v -23 -32 0
v -23 -31 0
v -24 -32 0
v -24 -31 0
v -25 -32 0
v -25 -31 0
v -26 -32 0
v -26 -31 0
v -27 -32 0
v -27 -31 0
v -28 -32 0
v -28 -31 0
v -29 -32 0
v -29 -31 0
v -30 -32 0
v -30 -31 0
v -31 -32 0
v -31 -31 0
v -32 -32 0
v -32 -31 0
v -33 -32 0
v -33 -31 0
v 0 -66 0
v -1 -66 0
v -1 -65 0
v 0 -65 0
v -2 -66 0
v -2 -65 0
v -3 -66 0
v -3 -65 0
v -4 -66 0
v -4 -65 0
v -5 -66 0
v -5 -65 0
v -6 -66 0
v -6 -65 0
v -7 -66 0
v -7 -65 0
v -8 -66 0
v -8 -65 0
v -9 -66 0
v -9 -65 0
v -10 -66 0
v -10 -65 0
v -20 -66 0
v -21 -66 0
v -21 -65 0
v -20 -65 0
v -22 -66 0
v -22 -65 0
v -23 -66 0
v -23 -65 0
v -24 -66 0
v -24 -65 0
v -25 -66 0
v -25 -65 0
v -26 -66 0
v -26 -65 0
v -27 -66 0
v -27 -65 0
v -28 -66 0
v -28 -65 0
v -29 -66 0
v -29 -65 0
v -30 -66 0
v -30 -65 0
v -40 -66 0
v -41 -66 0
v -41 -65 0
v -40 -65 0
v -42 -66 0
v -42 -65 0
v -43 -66 0
v -43 -65 0
v -44 -66 0
v -44 -65 0
v -45 -66 0
v -45 -65 0
v -46 -66 0
v -46 -65 0
v -47 -66 0
v -47 -65 0
v -48 -66 0
v -48 -65 0
v -49 -66 0
v -49 -65 0
v -50 -66 0
v -50 -65 0
v 0 -75 0
v -1 -75 0
v -1 -74 0
v 0 -74 0
v -2 -75 0
v -2 -74 0
v -3 -75 0
v -3 -74 0
v -4 -75 0
v -4 -74 0
v -5 -75 0
v -5 -74 0
v -6 -75 0
v -6 -74 0
v -7 -75 0
v -7 -74 0
v -8 -75 0
v -8 -74 0
v -9 -75 0
v -9 -74 0
v -10 -75 0
v -10 -74 0
v -11 -75 0
v -11 -74 0
v -12 -75 0
v -12 -74 0
v -13 -75 0
v -13 -74 0
v -14 -75 0
v -14 -74 0
v -15 -75 0
v -15 -74 0
v -16 -75 0
v -16 -74 0
v -17 -75 0
v -17 -74 0
v -18 -75 0
v -18 -74 0
v -19 -75 0
v -19 -74 0
v -20 -75 0
v -20 -74 0
v -21 -75 0
v -21 -74 0
v -22 -75 0
v -22 -74 0
v -23 -75 0
v -23 -74 0
v -24 -75 0
v -24 -74 0
v -25 -75 0
v -25 -74 0
v -26 -75 0
v -26 -74 0
v -27 -75 0
v -27 -74 0
v -28 -75 0
v -28 -74 0
v -29 -75 0
v -29 -74 0
v -30 -75 0
v -30 -74 0
v -31 -75 0
v -31 -74 0
v -32 -75 0
v -32 -74 0
v -33 -75 0
v -33 -74 0
v -34 -75 0
v -34 -74 0
v -35 -75 0
v -35 -74 0
v -36 -75 0
v -36 -74 0
v -37 -75 0
v -37 -74 0
v -38 -75 0
v -38 -74 0
v -39 -75 0
v -39 -74 0
v -40 -75 0
v -40 -74 0
v -41 -75 0
v -41 -74 0
v -42 -75 0
v -42 -74 0
v -43 -75 0
v -43 -74 0
v -44 -75 0
v -44 -74 0
v -45 -75 0
v -45 -74 0
v -46 -75 0
v -46 -74 0
v -47 -75 0
v -47 -74 0
v -48 -75 0
v -48 -74 0
v -49 -75 0
v -49 -74 0
v -50 -75 0
v -50 -74 0
v -14 -67 0
v -15 -67 0
v -15 -66 0
v -14 -66 0
v -16 -67 0
v -16 -66 0
v -34 -67 0
v -35 -67 0
v -35 -66 0
v -34 -66 0
v -36 -67 0
v -36 -66 0
v -14 -68 0
v -15 -68 0
v -16 -68 0
v -34 -68 0
v -35 -68 0
v -36 -68 0
v -14 -69 0
v -15 -69 0
v -16 -69 0
v -34 -69 0
v -35 -69 0
v -36 -69 0
v -12 -70 0
v -13 -70 0
v -13 -69 0
v -12 -69 0
v -14 -70 0
v -15 -70 0
v -16 -70 0
v -17 -70 0
v -17 -69 0
v -18 -70 0
v -18 -69 0
v -32 -70 0
v -33 -70 0
v -33 -69 0
v -32 -69 0
v -34 -70 0
v -35 -70 0
v -36 -70 0
v -37 -70 0
v -37 -69 0
v -38 -70 0
v -38 -69 0
v -12 -73 0
v -11 -73 0
v -13 -73 0
v -14 -73 0
v -15 -73 0
v -16 -73 0
v -17 -73 0
v -18 -73 0
v -19 -73 0
v -32 -73 0
v -31 -73 0
v -33 -73 0
v -34 -73 0
v -35 -73 0
v -36 -73 0
v -37 -73 0
v -38 -73 0
v -39 -73 0
v -20 -30 0
v -19 -30 0
v -21 -30 0
v -30 -30 0
v -29 -30 0
v -31 -30 0
v -11 -66 0
v -11 -65 0
v -19 -66 0
v -19 -65 0
v -31 -66 0
v -31 -65 0
v -39 -66 0
v -39 -65 0
v -26 -30 0
v -25 -30 0
v -13 -32 0
v -14 -32 0
v -14 -31 0
v -13 -31 0
v -36 -32 0
v -37 -32 0
v -37 -31 0
v -36 -31 0
v -13 -33 0
v -14 -33 0
v -36 -33 0
v -37 -33 0
v -13 -34 0
v -14 -34 0
v -36 -34 0
v -37 -34 0
v -13 -35 0
v -14 -35 0
v -36 -35 0
v -37 -35 0
v -13 -36 0
v -14 -36 0
v -36 -36 0
v -37 -36 0
v -13 -37 0
v -14 -37 0
v -36 -37 0
v -37 -37 0
v -13 -38 0
v -14 -38 0
v -36 -38 0
v -37 -38 0
v -13 -39 0
v -14 -39 0
v -36 -39 0
v -37 -39 0
v -13 -40 0
v -14 -40 0
v -36 -40 0
v -37 -40 0
v -13 -41 0
v -14 -41 0
v -36 -41 0
v -37 -41 0
v -13 -42 0
v -14 -42 0
v -36 -42 0
v -37 -42 0
v -13 -43 0
v -14 -43 0
v -36 -43 0
v -37 -43 0
v -13 -44 0
v -14 -44 0
v -36 -44 0
v -37 -44 0
v -13 -45 0
v -14 -45 0
v -36 -45 0
v -37 -45 0
v -13 -46 0
v -14 -46 0
v -15 -46 0
v -15 -45 0
v -35 -46 0
v -36 -46 0
v -35 -45 0
v -37 -46 0
v -13 -47 0
v -14 -47 0
v -15 -47 0
v -16 -47 0
v -16 -46 0
v -34 -47 0
v -35 -47 0
v -34 -46 0
v -36 -47 0
v -37 -47 0
v -14 -48 0
v -15 -48 0
v -16 -48 0
v -17 -48 0
v -17 -47 0
v -33 -48 0
v -34 -48 0
v -33 -47 0
v -35 -48 0
v -36 -48 0
v -15 -49 0
v -16 -49 0
v -17 -49 0
v -18 -49 0
v -18 -48 0
v -32 -49 0
v -33 -49 0
v -32 -48 0
v -34 -49 0
v -35 -49 0
v -16 -50 0
v -17 -50 0
v -18 -50 0
v -19 -50 0
v -19 -49 0
v -31 -50 0
v -32 -50 0
v -31 -49 0
v -33 -50 0
v -34 -50 0
v -17 -51 0
v -18 -51 0
v -19 -51 0
v -20 -51 0
v -20 -50 0
v -30 -51 0
v -31 -51 0
v -30 -50 0
v -32 -51 0
v -33 -51 0
v -18 -52 0
v -19 -52 0
v -20 -52 0
v -21 -52 0
v -21 -51 0
v -29 -52 0
v -30 -52 0
v -29 -51 0
v -31 -52 0
v -32 -52 0
v -19 -53 0
v -20 -53 0
v -21 -53 0
v -22 -53 0
v -22 -52 0
v -28 -53 0
v -29 -53 0
v -28 -52 0
v -30 -53 0
v -31 -53 0
v -20 -54 0
v -21 -54 0
v -22 -54 0
v -28 -54 0
v -29 -54 0
v -30 -54 0
v -21 -55 0
v -22 -55 0
v -28 -55 0
v -29 -55 0
v -21 -56 0
v -22 -56 0
v -28 -56 0
v -29 -56 0
v -21 -57 0
v -22 -57 0
v -28 -57 0
v -29 -57 0
v -21 -58 0
v -22 -58 0
v -28 -58 0
v -29 -58 0
v -21 -59 0
v -22 -59 0
v -28 -59 0
v -29 -59 0
v -21 -60 0
v -22 -60 0
v -28 -60 0
v -29 -60 0
v -21 -61 0
v -22 -61 0
v -28 -61 0
v -29 -61 0
v -21 -62 0
v -22 -62 0
v -28 -62 0
v -29 -62 0
v -21 -63 0
v -22 -63 0
v -28 -63 0
v -29 -63 0
v -21 -64 0
v -22 -64 0
v -28 -64 0
v -29 -64 0
v -20 -64 0
v -23 -64 0
v -27 -64 0
v -30 -64 0

# Texture cooridinates (Count = 96)
vt 0.8126221 0.0001220703
vt 0.8748779 0.0001220703
vt 0.8748779 0.9998779
vt 0.8126221 0.9998779
vt 0.8751221 0.0001220703
vt 0.9373779 0.0001220703
vt 0.9373779 0.9998779
vt 0.8751221 0.9998779
vt 0.9376221 0.0001220703
vt 0.9998779 0.0001220703
vt 0.9998779 0.9998779
vt 0.9376221 0.9998779
vt 0.0001220703 0.0001220703
vt 0.07680101 0.0001220703
vt 0.07680101 0.9998779
vt 0.0001220703 0.9998779
vt 0.1251221 0.0001220703
vt 0.2498779 0.0001220703
vt 0.2498779 0.9998779
vt 0.1251221 0.9998779
vt 0.6251221 0.0001220703
vt 0.7498779 0.0001220703
vt 0.7498779 0.9998779
vt 0.6251221 0.9998779
vt 0.5001221 0.0001220703
vt 0.6248779 0.0001220703
vt 0.6248779 0.9998779
vt 0.5001221 0.9998779
vt 0.1248779 0.0001220703
vt 0.1248779 0.9998779
vt 0.2501221 0.0001220703
vt 0.3748779 0.0001220703
vt 0.3748779 0.9998779
vt 0.2501221 0.9998779
vt 0.04749698 0.0001220703
vt 0.04749698 0.9998779
vt 0.03559222 0.0001220703
vt 0.03559222 0.9998779
vt 0.03583636 0.0001220703
vt 0.0713065 0.0001220703
vt 0.0713065 0.9998779
vt 0.03583636 0.9998779
vt 0.8215507 0.0001220703
vt 0.8570208 0.0001220703
vt 0.8570208 0.9998779
vt 0.8215507 0.9998779
vt 0.6429792 0.0001220703
vt 0.6784493 0.0001220703
vt 0.6784493 0.9998779
vt 0.6429792 0.9998779
vt 0.4644078 0.0001220703
vt 0.4998779 0.0001220703
vt 0.4998779 0.9998779
vt 0.4644078 0.9998779
vt 0.8572649 0.0001220703
vt 0.8927351 0.0001220703
vt 0.8927351 0.9998779
vt 0.8572649 0.9998779
vt 0.6072649 0.0001220703
vt 0.6427351 0.0001220703
vt 0.6427351 0.9998779
vt 0.6072649 0.9998779
vt 0.6786935 0.0001220703
vt 0.7141637 0.0001220703
vt 0.7141637 0.9998779
vt 0.6786935 0.9998779
vt 0.4286935 0.0001220703
vt 0.4641636 0.0001220703
vt 0.4641636 0.9998779
vt 0.4286935 0.9998779
vt 0.5355922 0.0001220703
vt 0.5355922 0.9998779
vt 0.7501221 0.0001220703
vt 0.7855922 0.0001220703
vt 0.7855922 0.9998779
vt 0.7501221 0.9998779
vt 0.9286935 0.0001220703
vt 0.9641637 0.0001220703
vt 0.9641637 0.9998779
vt 0.9286935 0.9998779
vt 0.07155064 0.0001220703
vt 0.1070208 0.0001220703
vt 0.1070208 0.9998779
vt 0.07155064 0.9998779
vt 0.1001221 0.0001220703
vt 0.1998779 0.0001220703
vt 0.1998779 0.9998779
vt 0.1001221 0.9998779
vt 0.2001221 0.0001220703
vt 0.2998779 0.0001220703
vt 0.2998779 0.9998779
vt 0.2001221 0.9998779
vt 0.3001221 0.0001220703
vt 0.3998779 0.0001220703
vt 0.3998779 0.9998779
vt 0.3001221 0.9998779

# Normal
vn 0 0 -1

# Groups (Count = 6)

g mesh_0001
f 1/1/1 2/2/1 3/3/1 4/4/1
f 2/5/1 5/6/1 6/7/1 3/8/1
f 5/5/1 7/6/1 8/7/1 6/8/1
f 7/5/1 9/6/1 10/7/1 8/8/1
f 9/5/1 11/6/1 12/7/1 10/8/1
f 11/5/1 13/6/1 14/7/1 12/8/1
f 13/5/1 15/6/1 16/7/1 14/8/1
f 15/5/1 17/6/1 18/7/1 16/8/1
f 17/5/1 19/6/1 20/7/1 18/8/1
f 19/5/1 21/6/1 22/7/1 20/8/1
f 21/5/1 23/6/1 24/7/1 22/8/1
f 23/5/1 25/6/1 26/7/1 24/8/1
f 25/5/1 27/6/1 28/7/1 26/8/1
f 27/5/1 29/6/1 30/7/1 28/8/1
f 29/5/1 31/6/1 32/7/1 30/8/1
f 31/9/1 33/10/1 34/11/1 32/12/1
f 35/1/1 36/2/1 37/3/1 38/4/1
f 36/5/1 39/6/1 40/7/1 37/8/1
f 39/5/1 41/6/1 42/7/1 40/8/1
f 41/5/1 43/6/1 44/7/1 42/8/1
f 43/5/1 45/6/1 46/7/1 44/8/1
f 45/5/1 47/6/1 48/7/1 46/8/1
f 47/5/1 49/6/1 50/7/1 48/8/1
f 49/5/1 51/6/1 52/7/1 50/8/1
f 51/5/1 53/6/1 54/7/1 52/8/1
f 53/9/1 55/10/1 56/11/1 54/12/1
f 57/1/1 58/2/1 59/3/1 60/4/1
f 58/5/1 61/6/1 62/7/1 59/8/1
f 61/5/1 63/6/1 64/7/1 62/8/1
f 63/5/1 65/6/1 66/7/1 64/8/1
f 65/5/1 67/6/1 68/7/1 66/8/1
f 67/5/1 69/6/1 70/7/1 68/8/1
f 69/5/1 71/6/1 72/7/1 70/8/1
f 71/5/1 73/6/1 74/7/1 72/8/1
f 73/5/1 75/6/1 76/7/1 74/8/1
f 75/9/1 77/10/1 78/11/1 76/12/1
f 79/1/1 80/2/1 81/3/1 82/4/1
f 80/5/1 83/6/1 84/7/1 81/8/1
f 83/5/1 85/6/1 86/7/1 84/8/1
f 85/5/1 87/6/1 88/7/1 86/8/1
f 87/5/1 89/6/1 90/7/1 88/8/1
f 89/5/1 91/6/1 92/7/1 90/8/1
f 91/5/1 93/6/1 94/7/1 92/8/1
f 93/5/1 95/6/1 96/7/1 94/8/1
f 95/5/1 97/6/1 98/7/1 96/8/1
f 97/9/1 99/10/1 100/11/1 98/12/1
f 101/1/1 102/2/1 103/3/1 104/4/1
f 102/5/1 105/6/1 106/7/1 103/8/1
f 105/5/1 107/6/1 108/7/1 106/8/1
f 107/5/1 109/6/1 110/7/1 108/8/1
f 109/5/1 111/6/1 112/7/1 110/8/1
f 111/5/1 113/6/1 114/7/1 112/8/1
f 113/5/1 115/6/1 116/7/1 114/8/1
f 115/5/1 117/6/1 118/7/1 116/8/1
f 117/5/1 119/6/1 120/7/1 118/8/1
f 119/5/1 121/6/1 122/7/1 120/8/1
f 121/5/1 123/6/1 124/7/1 122/8/1
f 123/5/1 125/6/1 126/7/1 124/8/1
f 125/5/1 127/6/1 128/7/1 126/8/1
f 127/5/1 129/6/1 130/7/1 128/8/1
f 129/5/1 131/6/1 132/7/1 130/8/1
f 131/5/1 133/6/1 134/7/1 132/8/1
f 133/5/1 135/6/1 136/7/1 134/8/1
f 135/5/1 137/6/1 138/7/1 136/8/1
f 137/5/1 139/6/1 140/7/1 138/8/1
f 139/5/1 141/6/1 142/7/1 140/8/1
f 141/5/1 143/6/1 144/7/1 142/8/1
f 143/5/1 145/6/1 146/7/1 144/8/1
f 145/5/1 147/6/1 148/7/1 146/8/1
f 147/5/1 149/6/1 150/7/1 148/8/1
f 149/5/1 151/6/1 152/7/1 150/8/1
f 151/5/1 153/6/1 154/7/1 152/8/1
f 153/5/1 155/6/1 156/7/1 154/8/1
f 155/5/1 157/6/1 158/7/1 156/8/1
f 157/5/1 159/6/1 160/7/1 158/8/1
f 159/5/1 161/6/1 162/7/1 160/8/1
f 161/5/1 163/6/1 164/7/1 162/8/1
f 163/5/1 165/6/1 166/7/1 164/8/1
f 165/5/1 167/6/1 168/7/1 166/8/1
f 167/5/1 169/6/1 170/7/1 168/8/1
f 169/5/1 171/6/1 172/7/1 170/8/1
f 171/5/1 173/6/1 174/7/1 172/8/1
f 173/5/1 175/6/1 176/7/1 174/8/1
f 175/5/1 177/6/1 178/7/1 176/8/1
f 177/5/1 179/6/1 180/7/1 178/8/1
f 179/5/1 181/6/1 182/7/1 180/8/1
f 181/5/1 183/6/1 184/7/1 182/8/1
f 183/5/1 185/6/1 186/7/1 184/8/1
f 185/5/1 187/6/1 188/7/1 186/8/1
f 187/5/1 189/6/1 190/7/1 188/8/1
f 189/5/1 191/6/1 192/7/1 190/8/1
f 191/5/1 193/6/1 194/7/1 192/8/1
f 193/5/1 195/6/1 196/7/1 194/8/1
f 195/5/1 197/6/1 198/7/1 196/8/1
f 197/5/1 199/6/1 200/7/1 198/8/1
f 199/9/1 201/10/1 202/11/1 200/12/1

g mesh_0002
f 203/13/1 204/14/1 205/15/1 206/16/1
f 204/13/1 207/14/1 208/15/1 205/16/1
f 209/13/1 210/14/1 211/15/1 212/16/1
f 210/13/1 213/14/1 214/15/1 211/16/1
f 215/13/1 216/14/1 204/15/1 203/16/1
f 216/13/1 217/14/1 207/15/1 204/16/1
f 218/13/1 219/14/1 210/15/1 209/16/1
f 219/13/1 220/14/1 213/15/1 210/16/1
f 221/13/1 222/14/1 216/15/1 215/16/1
f 222/13/1 223/14/1 217/15/1 216/16/1
f 224/13/1 225/14/1 219/15/1 218/16/1
f 225/13/1 226/14/1 220/15/1 219/16/1
f 227/13/1 228/14/1 229/15/1 230/16/1
f 228/13/1 231/14/1 221/15/1 229/16/1
f 231/13/1 232/14/1 222/15/1 221/16/1
f 232/13/1 233/14/1 223/15/1 222/16/1
f 233/13/1 234/14/1 235/15/1 223/16/1
f 234/13/1 236/14/1 237/15/1 235/16/1
f 238/13/1 239/14/1 240/15/1 241/16/1
f 239/13/1 242/14/1 224/15/1 240/16/1
f 242/13/1 243/14/1 225/15/1 224/16/1
f 243/13/1 244/14/1 226/15/1 225/16/1
f 244/13/1 245/14/1 246/15/1 226/16/1
f 245/13/1 247/14/1 248/15/1 246/16/1
f 124/13/1 126/14/1 249/15/1 250/16/1
f 126/13/1 128/14/1 251/15/1 249/16/1
f 128/13/1 130/14/1 252/15/1 251/16/1
f 130/13/1 132/14/1 253/15/1 252/16/1
f 132/13/1 134/14/1 254/15/1 253/16/1
f 134/13/1 136/14/1 255/15/1 254/16/1
f 136/13/1 138/14/1 256/15/1 255/16/1
f 138/13/1 140/14/1 257/15/1 256/16/1
f 164/13/1 166/14/1 258/15/1 259/16/1
f 166/13/1 168/14/1 260/15/1 258/16/1
f 168/13/1 170/14/1 261/15/1 260/16/1
f 170/13/1 172/14/1 262/15/1 261/16/1
f 172/13/1 174/14/1 263/15/1 262/16/1
f 174/13/1 176/14/1 264/15/1 263/16/1
f 176/13/1 178/14/1 265/15/1 264/16/1
f 178/13/1 180/14/1 266/15/1 265/16/1

g mesh_0003
f 6/17/1 8/18/1 267/19/1 268/20/1
f 8/17/1 10/18/1 269/19/1 267/20/1
f 26/17/1 28/18/1 270/19/1 271/20/1
f 28/17/1 30/18/1 272/19/1 270/20/1
f 5/21/1 7/22/1 8/23/1 6/24/1
f 7/21/1 9/22/1 10/23/1 8/24/1
f 25/21/1 27/22/1 28/23/1 26/24/1
f 27/21/1 29/22/1 30/23/1 28/24/1
f 53/25/1 55/26/1 56/27/1 54/28/1
f 55/13/1 273/29/1 274/30/1 56/16/1
f 275/31/1 57/32/1 60/33/1 276/34/1
f 57/5/1 58/10/1 59/11/1 60/8/1
f 75/25/1 77/26/1 78/27/1 76/28/1
f 77/13/1 277/29/1 278/30/1 78/16/1
f 279/31/1 79/32/1 82/33/1 280/34/1
f 79/5/1 80/10/1 81/11/1 82/8/1

g mesh_0004
f 18/13/1 20/35/1 281/36/1 282/16/1

g mesh_0005
f 283/13/1 284/37/1 285/38/1 286/16/1
f 287/13/1 288/37/1 289/38/1 290/16/1
f 291/39/1 292/40/1 284/41/1 283/42/1
f 293/39/1 294/40/1 288/41/1 287/42/1
f 295/39/1 296/40/1 292/41/1 291/42/1
f 297/39/1 298/40/1 294/41/1 293/42/1
f 299/39/1 300/40/1 296/41/1 295/42/1
f 301/39/1 302/40/1 298/41/1 297/42/1
f 303/39/1 304/40/1 300/41/1 299/42/1
f 305/39/1 306/40/1 302/41/1 301/42/1
f 307/39/1 308/40/1 304/41/1 303/42/1
f 309/39/1 310/40/1 306/41/1 305/42/1
f 311/39/1 312/40/1 308/41/1 307/42/1
f 313/39/1 314/40/1 310/41/1 309/42/1
f 315/39/1 316/40/1 312/41/1 311/42/1
f 317/39/1 318/40/1 314/41/1 313/42/1
f 319/39/1 320/40/1 316/41/1 315/42/1
f 321/39/1 322/40/1 318/41/1 317/42/1
f 323/39/1 324/40/1 320/41/1 319/42/1
f 325/39/1 326/40/1 322/41/1 321/42/1
f 327/39/1 328/40/1 324/41/1 323/42/1
f 329/39/1 330/40/1 326/41/1 325/42/1
f 331/39/1 332/40/1 328/41/1 327/42/1
f 333/39/1 334/40/1 330/41/1 329/42/1
f 335/39/1 336/40/1 332/41/1 331/42/1
f 337/39/1 338/40/1 334/41/1 333/42/1
f 339/39/1 340/40/1 336/41/1 335/42/1
f 341/39/1 342/40/1 338/41/1 337/42/1
f 343/43/1 344/44/1 340/45/1 339/46/1
f 344/47/1 345/48/1 346/49/1 340/50/1
f 347/51/1 348/52/1 341/53/1 349/54/1
f 348/55/1 350/56/1 342/57/1 341/58/1
f 351/59/1 352/60/1 344/61/1 343/62/1
f 352/63/1 353/64/1 345/65/1 344/66/1
f 353/47/1 354/48/1 355/49/1 345/50/1
f 356/51/1 357/52/1 347/53/1 358/54/1
f 357/67/1 359/68/1 348/69/1 347/70/1
f 359/25/1 360/71/1 350/72/1 348/28/1
f 361/59/1 362/60/1 353/61/1 352/62/1
f 362/63/1 363/64/1 354/65/1 353/66/1
f 363/47/1 364/48/1 365/49/1 354/50/1
f 366/51/1 367/52/1 356/53/1 368/54/1
f 367/67/1 369/68/1 357/69/1 356/70/1
f 369/25/1 370/71/1 359/72/1 357/28/1
f 371/59/1 372/60/1 363/61/1 362/62/1
f 372/63/1 373/64/1 364/65/1 363/66/1
f 373/47/1 374/48/1 375/49/1 364/50/1
f 376/51/1 377/52/1 366/53/1 378/54/1
f 377/67/1 379/68/1 367/69/1 366/70/1
f 379/25/1 380/71/1 369/72/1 367/28/1
f 381/59/1 382/60/1 373/61/1 372/62/1
f 382/63/1 383/64/1 374/65/1 373/66/1
f 383/47/1 384/48/1 385/49/1 374/50/1
f 386/51/1 387/52/1 376/53/1 388/54/1
f 387/67/1 389/68/1 377/69/1 376/70/1
f 389/25/1 390/71/1 379/72/1 377/28/1
f 391/59/1 392/60/1 383/61/1 382/62/1
f 392/63/1 393/64/1 384/65/1 383/66/1
f 393/47/1 394/48/1 395/49/1 384/50/1
f 396/51/1 397/52/1 386/53/1 398/54/1
f 397/67/1 399/68/1 387/69/1 386/70/1
f 399/25/1 400/71/1 389/72/1 387/28/1
f 401/59/1 402/60/1 393/61/1 392/62/1
f 402/63/1 403/64/1 394/65/1 393/66/1
f 403/47/1 404/48/1 405/49/1 394/50/1
f 406/51/1 407/52/1 396/53/1 408/54/1
f 407/67/1 409/68/1 397/69/1 396/70/1
f 409/25/1 410/71/1 399/72/1 397/28/1
f 411/59/1 412/60/1 403/61/1 402/62/1
f 412/63/1 413/64/1 404/65/1 403/66/1
f 413/47/1 414/48/1 415/49/1 404/50/1
f 416/51/1 417/52/1 406/53/1 418/54/1
f 417/67/1 419/68/1 407/69/1 406/70/1
f 419/25/1 420/71/1 409/72/1 407/28/1
f 421/59/1 422/60/1 413/61/1 412/62/1
f 422/73/1 423/74/1 414/75/1 413/76/1
f 424/77/1 425/78/1 417/79/1 416/80/1
f 425/25/1 426/71/1 419/72/1 417/28/1
f 427/39/1 428/40/1 423/41/1 422/42/1
f 429/39/1 430/40/1 425/41/1 424/42/1
f 431/39/1 432/40/1 428/41/1 427/42/1
f 433/39/1 434/40/1 430/41/1 429/42/1
f 435/39/1 436/40/1 432/41/1 431/42/1
f 437/39/1 438/40/1 434/41/1 433/42/1
f 439/39/1 440/40/1 436/41/1 435/42/1
f 441/39/1 442/40/1 438/41/1 437/42/1
f 443/39/1 444/40/1 440/41/1 439/42/1
f 445/39/1 446/40/1 442/41/1 441/42/1
f 447/39/1 448/40/1 444/41/1 443/42/1
f 449/39/1 450/40/1 446/41/1 445/42/1
f 451/39/1 452/40/1 448/41/1 447/42/1
f 453/39/1 454/40/1 450/41/1 449/42/1
f 455/39/1 456/40/1 452/41/1 451/42/1
f 457/39/1 458/40/1 454/41/1 453/42/1
f 459/39/1 460/40/1 456/41/1 455/42/1
f 461/39/1 462/40/1 458/41/1 457/42/1
f 463/39/1 464/40/1 460/41/1 459/42/1
f 465/39/1 466/40/1 462/41/1 461/42/1
f 59/81/1 62/82/1 464/83/1 463/84/1
f 74/81/1 76/82/1 466/83/1 465/84/1

g mesh_0006
f 60/85/1 59/86/1 463/87/1 467/88/1
f 59/89/1 62/90/1 464/91/1 463/92/1
f 62/93/1 64/94/1 468/95/1 464/96/1
f 72/85/1 74/86/1 465/87/1 469/88/1
f 74/89/1 76/90/1 466/91/1 465/92/1
f 76/93/1 78/94/1 470/95/1 466/96/1

