# Wavefront OBJ file automatically generated by Tiled2Unity

# Vertices (Count = 482)
v -17 -32 0
v -18 -32 0
v -18 -31 0
v -17 -31 0
v -19 -32 0
v -19 -31 0
v -20 -32 0
v -20 -31 0
v -21 -32 0
v -21 -31 0
v -22 -32 0
v -22 -31 0
v -23 -32 0
v -23 -31 0
v -24 -32 0
v -24 -31 0
v -25 -32 0
v -25 -31 0
v -26 -32 0
v -26 -31 0
v -27 -32 0
v -27 -31 0
v -28 -32 0
v -28 -31 0
v -29 -32 0
v -29 -31 0
v -30 -32 0
v -30 -31 0
v -31 -32 0
v -31 -31 0
v -32 -32 0
v -32 -31 0
v -33 -32 0
v -33 -31 0
v 0 -66 0
v -1 -66 0
v -1 -65 0
v 0 -65 0
v -2 -66 0
v -2 -65 0
v -3 -66 0
v -3 -65 0
v -4 -66 0
v -4 -65 0
v -5 -66 0
v -5 -65 0
v -6 -66 0
v -6 -65 0
v -7 -66 0
v -7 -65 0
v -8 -66 0
v -8 -65 0
v -9 -66 0
v -9 -65 0
v -10 -66 0
v -10 -65 0
v -20 -66 0
v -21 -66 0
v -21 -65 0
v -20 -65 0
v -22 -66 0
v -22 -65 0
v -23 -66 0
v -23 -65 0
v -24 -66 0
v -24 -65 0
v -25 -66 0
v -25 -65 0
v -26 -66 0
v -26 -65 0
v -27 -66 0
v -27 -65 0
v -28 -66 0
v -28 -65 0
v -29 -66 0
v -29 -65 0
v -30 -66 0
v -30 -65 0
v -40 -66 0
v -41 -66 0
v -41 -65 0
v -40 -65 0
v -42 -66 0
v -42 -65 0
v -43 -66 0
v -43 -65 0
v -44 -66 0
v -44 -65 0
v -45 -66 0
v -45 -65 0
v -46 -66 0
v -46 -65 0
v -47 -66 0
v -47 -65 0
v -48 -66 0
v -48 -65 0
v -49 -66 0
v -49 -65 0
v -50 -66 0
v -50 -65 0
v 0 -75 0
v -1 -75 0
v -1 -74 0
v 0 -74 0
v -2 -75 0
v -2 -74 0
v -3 -75 0
v -3 -74 0
v -4 -75 0
v -4 -74 0
v -5 -75 0
v -5 -74 0
v -6 -75 0
v -6 -74 0
v -7 -75 0
v -7 -74 0
v -8 -75 0
v -8 -74 0
v -9 -75 0
v -9 -74 0
v -10 -75 0
v -10 -74 0
v -11 -75 0
v -11 -74 0
v -12 -75 0
v -12 -74 0
v -13 -75 0
v -13 -74 0
v -14 -75 0
v -14 -74 0
v -15 -75 0
v -15 -74 0
v -16 -75 0
v -16 -74 0
v -17 -75 0
v -17 -74 0
v -18 -75 0
v -18 -74 0
v -19 -75 0
v -19 -74 0
v -20 -75 0
v -20 -74 0
v -21 -75 0
v -21 -74 0
v -22 -75 0
v -22 -74 0
v -23 -75 0
v -23 -74 0
v -24 -75 0
v -24 -74 0
v -25 -75 0
v -25 -74 0
v -26 -75 0
v -26 -74 0
v -27 -75 0
v -27 -74 0
v -28 -75 0
v -28 -74 0
v -29 -75 0
v -29 -74 0
v -30 -75 0
v -30 -74 0
v -31 -75 0
v -31 -74 0
v -32 -75 0
v -32 -74 0
v -33 -75 0
v -33 -74 0
v -34 -75 0
v -34 -74 0
v -35 -75 0
v -35 -74 0
v -36 -75 0
v -36 -74 0
v -37 -75 0
v -37 -74 0
v -38 -75 0
v -38 -74 0
v -39 -75 0
v -39 -74 0
v -40 -75 0
v -40 -74 0
v -41 -75 0
v -41 -74 0
v -42 -75 0
v -42 -74 0
v -43 -75 0
v -43 -74 0
v -44 -75 0
v -44 -74 0
v -45 -75 0
v -45 -74 0
v -46 -75 0
v -46 -74 0
v -47 -75 0
v -47 -74 0
v -48 -75 0
v -48 -74 0
v -49 -75 0
v -49 -74 0
v -50 -75 0
v -50 -74 0
v -18 -30 0
v -17 -30 0
v -19 -30 0
v -32 -30 0
v -31 -30 0
v -33 -30 0
v -11 -66 0
v -11 -65 0
v -19 -66 0
v -19 -65 0
v -31 -66 0
v -31 -65 0
v -39 -66 0
v -39 -65 0
v -26 -30 0
v -25 -30 0
v -13 -32 0
v -14 -32 0
v -14 -31 0
v -13 -31 0
v -36 -32 0
v -37 -32 0
v -37 -31 0
v -36 -31 0
v -13 -33 0
v -14 -33 0
v -36 -33 0
v -37 -33 0
v -13 -34 0
v -14 -34 0
v -36 -34 0
v -37 -34 0
v -13 -35 0
v -14 -35 0
v -36 -35 0
v -37 -35 0
v -13 -36 0
v -14 -36 0
v -36 -36 0
v -37 -36 0
v -13 -37 0
v -14 -37 0
v -36 -37 0
v -37 -37 0
v -13 -38 0
v -14 -38 0
v -36 -38 0
v -37 -38 0
v -13 -39 0
v -14 -39 0
v -36 -39 0
v -37 -39 0
v -13 -40 0
v -14 -40 0
v -36 -40 0
v -37 -40 0
v -13 -41 0
v -14 -41 0
v -36 -41 0
v -37 -41 0
v -13 -42 0
v -14 -42 0
v -36 -42 0
v -37 -42 0
v -13 -43 0
v -14 -43 0
v -36 -43 0
v -37 -43 0
v -13 -44 0
v -14 -44 0
v -36 -44 0
v -37 -44 0
v -13 -45 0
v -14 -45 0
v -36 -45 0
v -37 -45 0
v -13 -46 0
v -14 -46 0
v -15 -46 0
v -15 -45 0
v -35 -46 0
v -36 -46 0
v -35 -45 0
v -37 -46 0
v -13 -47 0
v -14 -47 0
v -15 -47 0
v -16 -47 0
v -16 -46 0
v -34 -47 0
v -35 -47 0
v -34 -46 0
v -36 -47 0
v -37 -47 0
v -14 -48 0
v -15 -48 0
v -16 -48 0
v -17 -48 0
v -17 -47 0
v -33 -48 0
v -34 -48 0
v -33 -47 0
v -35 -48 0
v -36 -48 0
v -15 -49 0
v -16 -49 0
v -17 -49 0
v -18 -49 0
v -18 -48 0
v -32 -49 0
v -33 -49 0
v -32 -48 0
v -34 -49 0
v -35 -49 0
v -16 -50 0
v -17 -50 0
v -18 -50 0
v -19 -50 0
v -19 -49 0
v -31 -50 0
v -32 -50 0
v -31 -49 0
v -33 -50 0
v -34 -50 0
v -17 -51 0
v -18 -51 0
v -19 -51 0
v -20 -51 0
v -20 -50 0
v -30 -51 0
v -31 -51 0
v -30 -50 0
v -32 -51 0
v -33 -51 0
v -18 -52 0
v -19 -52 0
v -20 -52 0
v -21 -52 0
v -21 -51 0
v -29 -52 0
v -30 -52 0
v -29 -51 0
v -31 -52 0
v -32 -52 0
v -19 -53 0
v -20 -53 0
v -21 -53 0
v -22 -53 0
v -22 -52 0
v -28 -53 0
v -29 -53 0
v -28 -52 0
v -30 -53 0
v -31 -53 0
v -20 -54 0
v -21 -54 0
v -22 -54 0
v -28 -54 0
v -29 -54 0
v -30 -54 0
v -21 -55 0
v -22 -55 0
v -28 -55 0
v -29 -55 0
v -21 -56 0
v -22 -56 0
v -28 -56 0
v -29 -56 0
v -21 -57 0
v -22 -57 0
v -28 -57 0
v -29 -57 0
v -21 -58 0
v -22 -58 0
v -28 -58 0
v -29 -58 0
v -21 -59 0
v -22 -59 0
v -28 -59 0
v -29 -59 0
v -21 -60 0
v -22 -60 0
v -28 -60 0
v -29 -60 0
v -21 -61 0
v -22 -61 0
v -28 -61 0
v -29 -61 0
v -21 -62 0
v -22 -62 0
v -28 -62 0
v -29 -62 0
v -21 -63 0
v -22 -63 0
v -28 -63 0
v -29 -63 0
v -21 -64 0
v -22 -64 0
v -28 -64 0
v -29 -64 0
v -14 -66 0
v -15 -66 0
v -15 -65 0
v -14 -65 0
v -35 -66 0
v -36 -66 0
v -36 -65 0
v -35 -65 0
v -14 -67 0
v -15 -67 0
v -35 -67 0
v -36 -67 0
v -14 -68 0
v -15 -68 0
v -35 -68 0
v -36 -68 0
v -14 -69 0
v -15 -69 0
v -35 -69 0
v -36 -69 0
v -14 -70 0
v -15 -70 0
v -35 -70 0
v -36 -70 0
v -14 -71 0
v -15 -71 0
v -35 -71 0
v -36 -71 0
v -14 -72 0
v -15 -72 0
v -35 -72 0
v -36 -72 0
v -14 -73 0
v -15 -73 0
v -35 -73 0
v -36 -73 0
v -20 -64 0
v -23 -64 0
v -27 -64 0
v -30 -64 0
v -13 -73 0
v -16 -73 0
v -34 -73 0
v -37 -73 0
v -16 -67 0
v -16 -66 0
v -34 -67 0
v -34 -66 0
v -16 -68 0
v -34 -68 0
v -16 -69 0
v -34 -69 0
v -12 -70 0
v -13 -70 0
v -13 -69 0
v -12 -69 0
v -16 -70 0
v -17 -70 0
v -17 -69 0
v -18 -70 0
v -18 -69 0
v -32 -70 0
v -33 -70 0
v -33 -69 0
v -32 -69 0
v -34 -70 0
v -37 -70 0
v -37 -69 0
v -38 -70 0
v -38 -69 0
v -12 -73 0
v -11 -73 0
v -17 -73 0
v -18 -73 0
v -19 -73 0
v -32 -73 0
v -31 -73 0
v -33 -73 0
v -38 -73 0
v -39 -73 0

# Texture cooridinates (Count = 96)
vt 0.8126221 0.0001220703
vt 0.8748779 0.0001220703
vt 0.8748779 0.9998779
vt 0.8126221 0.9998779
vt 0.8751221 0.0001220703
vt 0.9373779 0.0001220703
vt 0.9373779 0.9998779
vt 0.8751221 0.9998779
vt 0.9376221 0.0001220703
vt 0.9998779 0.0001220703
vt 0.9998779 0.9998779
vt 0.9376221 0.9998779
vt 0.1251221 0.0001220703
vt 0.2498779 0.0001220703
vt 0.2498779 0.9998779
vt 0.1251221 0.9998779
vt 0.6251221 0.0001220703
vt 0.7498779 0.0001220703
vt 0.7498779 0.9998779
vt 0.6251221 0.9998779
vt 0.5001221 0.0001220703
vt 0.6248779 0.0001220703
vt 0.6248779 0.9998779
vt 0.5001221 0.9998779
vt 0.0001220703 0.0001220703
vt 0.1248779 0.0001220703
vt 0.1248779 0.9998779
vt 0.0001220703 0.9998779
vt 0.2501221 0.0001220703
vt 0.3748779 0.0001220703
vt 0.3748779 0.9998779
vt 0.2501221 0.9998779
vt 0.04749698 0.0001220703
vt 0.04749698 0.9998779
vt 0.03559222 0.0001220703
vt 0.03559222 0.9998779
vt 0.03583636 0.0001220703
vt 0.0713065 0.0001220703
vt 0.0713065 0.9998779
vt 0.03583636 0.9998779
vt 0.8215507 0.0001220703
vt 0.8570208 0.0001220703
vt 0.8570208 0.9998779
vt 0.8215507 0.9998779
vt 0.6429792 0.0001220703
vt 0.6784493 0.0001220703
vt 0.6784493 0.9998779
vt 0.6429792 0.9998779
vt 0.4644078 0.0001220703
vt 0.4998779 0.0001220703
vt 0.4998779 0.9998779
vt 0.4644078 0.9998779
vt 0.8572649 0.0001220703
vt 0.8927351 0.0001220703
vt 0.8927351 0.9998779
vt 0.8572649 0.9998779
vt 0.6072649 0.0001220703
vt 0.6427351 0.0001220703
vt 0.6427351 0.9998779
vt 0.6072649 0.9998779
vt 0.6786935 0.0001220703
vt 0.7141637 0.0001220703
vt 0.7141637 0.9998779
vt 0.6786935 0.9998779
vt 0.4286935 0.0001220703
vt 0.4641636 0.0001220703
vt 0.4641636 0.9998779
vt 0.4286935 0.9998779
vt 0.5355922 0.0001220703
vt 0.5355922 0.9998779
vt 0.7501221 0.0001220703
vt 0.7855922 0.0001220703
vt 0.7855922 0.9998779
vt 0.7501221 0.9998779
vt 0.9286935 0.0001220703
vt 0.9641637 0.0001220703
vt 0.9641637 0.9998779
vt 0.9286935 0.9998779
vt 0.07155064 0.0001220703
vt 0.1070208 0.0001220703
vt 0.1070208 0.9998779
vt 0.07155064 0.9998779
vt 0.1001221 0.0001220703
vt 0.1998779 0.0001220703
vt 0.1998779 0.9998779
vt 0.1001221 0.9998779
vt 0.2001221 0.0001220703
vt 0.2998779 0.0001220703
vt 0.2998779 0.9998779
vt 0.2001221 0.9998779
vt 0.3001221 0.0001220703
vt 0.3998779 0.0001220703
vt 0.3998779 0.9998779
vt 0.3001221 0.9998779
vt 0.07680101 0.0001220703
vt 0.07680101 0.9998779

# Normal
vn 0 0 -1

# Groups (Count = 6)

g mesh_0001
f 1/1/1 2/2/1 3/3/1 4/4/1
f 2/5/1 5/6/1 6/7/1 3/8/1
f 5/5/1 7/6/1 8/7/1 6/8/1
f 7/5/1 9/6/1 10/7/1 8/8/1
f 9/5/1 11/6/1 12/7/1 10/8/1
f 11/5/1 13/6/1 14/7/1 12/8/1
f 13/5/1 15/6/1 16/7/1 14/8/1
f 15/5/1 17/6/1 18/7/1 16/8/1
f 17/5/1 19/6/1 20/7/1 18/8/1
f 19/5/1 21/6/1 22/7/1 20/8/1
f 21/5/1 23/6/1 24/7/1 22/8/1
f 23/5/1 25/6/1 26/7/1 24/8/1
f 25/5/1 27/6/1 28/7/1 26/8/1
f 27/5/1 29/6/1 30/7/1 28/8/1
f 29/5/1 31/6/1 32/7/1 30/8/1
f 31/9/1 33/10/1 34/11/1 32/12/1
f 35/1/1 36/2/1 37/3/1 38/4/1
f 36/5/1 39/6/1 40/7/1 37/8/1
f 39/5/1 41/6/1 42/7/1 40/8/1
f 41/5/1 43/6/1 44/7/1 42/8/1
f 43/5/1 45/6/1 46/7/1 44/8/1
f 45/5/1 47/6/1 48/7/1 46/8/1
f 47/5/1 49/6/1 50/7/1 48/8/1
f 49/5/1 51/6/1 52/7/1 50/8/1
f 51/5/1 53/6/1 54/7/1 52/8/1
f 53/9/1 55/10/1 56/11/1 54/12/1
f 57/1/1 58/2/1 59/3/1 60/4/1
f 58/5/1 61/6/1 62/7/1 59/8/1
f 61/5/1 63/6/1 64/7/1 62/8/1
f 63/5/1 65/6/1 66/7/1 64/8/1
f 65/5/1 67/6/1 68/7/1 66/8/1
f 67/5/1 69/6/1 70/7/1 68/8/1
f 69/5/1 71/6/1 72/7/1 70/8/1
f 71/5/1 73/6/1 74/7/1 72/8/1
f 73/5/1 75/6/1 76/7/1 74/8/1
f 75/9/1 77/10/1 78/11/1 76/12/1
f 79/1/1 80/2/1 81/3/1 82/4/1
f 80/5/1 83/6/1 84/7/1 81/8/1
f 83/5/1 85/6/1 86/7/1 84/8/1
f 85/5/1 87/6/1 88/7/1 86/8/1
f 87/5/1 89/6/1 90/7/1 88/8/1
f 89/5/1 91/6/1 92/7/1 90/8/1
f 91/5/1 93/6/1 94/7/1 92/8/1
f 93/5/1 95/6/1 96/7/1 94/8/1
f 95/5/1 97/6/1 98/7/1 96/8/1
f 97/9/1 99/10/1 100/11/1 98/12/1
f 101/1/1 102/2/1 103/3/1 104/4/1
f 102/5/1 105/6/1 106/7/1 103/8/1
f 105/5/1 107/6/1 108/7/1 106/8/1
f 107/5/1 109/6/1 110/7/1 108/8/1
f 109/5/1 111/6/1 112/7/1 110/8/1
f 111/5/1 113/6/1 114/7/1 112/8/1
f 113/5/1 115/6/1 116/7/1 114/8/1
f 115/5/1 117/6/1 118/7/1 116/8/1
f 117/5/1 119/6/1 120/7/1 118/8/1
f 119/5/1 121/6/1 122/7/1 120/8/1
f 121/5/1 123/6/1 124/7/1 122/8/1
f 123/5/1 125/6/1 126/7/1 124/8/1
f 125/5/1 127/6/1 128/7/1 126/8/1
f 127/5/1 129/6/1 130/7/1 128/8/1
f 129/5/1 131/6/1 132/7/1 130/8/1
f 131/5/1 133/6/1 134/7/1 132/8/1
f 133/5/1 135/6/1 136/7/1 134/8/1
f 135/5/1 137/6/1 138/7/1 136/8/1
f 137/5/1 139/6/1 140/7/1 138/8/1
f 139/5/1 141/6/1 142/7/1 140/8/1
f 141/5/1 143/6/1 144/7/1 142/8/1
f 143/5/1 145/6/1 146/7/1 144/8/1
f 145/5/1 147/6/1 148/7/1 146/8/1
f 147/5/1 149/6/1 150/7/1 148/8/1
f 149/5/1 151/6/1 152/7/1 150/8/1
f 151/5/1 153/6/1 154/7/1 152/8/1
f 153/5/1 155/6/1 156/7/1 154/8/1
f 155/5/1 157/6/1 158/7/1 156/8/1
f 157/5/1 159/6/1 160/7/1 158/8/1
f 159/5/1 161/6/1 162/7/1 160/8/1
f 161/5/1 163/6/1 164/7/1 162/8/1
f 163/5/1 165/6/1 166/7/1 164/8/1
f 165/5/1 167/6/1 168/7/1 166/8/1
f 167/5/1 169/6/1 170/7/1 168/8/1
f 169/5/1 171/6/1 172/7/1 170/8/1
f 171/5/1 173/6/1 174/7/1 172/8/1
f 173/5/1 175/6/1 176/7/1 174/8/1
f 175/5/1 177/6/1 178/7/1 176/8/1
f 177/5/1 179/6/1 180/7/1 178/8/1
f 179/5/1 181/6/1 182/7/1 180/8/1
f 181/5/1 183/6/1 184/7/1 182/8/1
f 183/5/1 185/6/1 186/7/1 184/8/1
f 185/5/1 187/6/1 188/7/1 186/8/1
f 187/5/1 189/6/1 190/7/1 188/8/1
f 189/5/1 191/6/1 192/7/1 190/8/1
f 191/5/1 193/6/1 194/7/1 192/8/1
f 193/5/1 195/6/1 196/7/1 194/8/1
f 195/5/1 197/6/1 198/7/1 196/8/1
f 197/5/1 199/6/1 200/7/1 198/8/1
f 199/9/1 201/10/1 202/11/1 200/12/1

g mesh_0002
f 4/13/1 3/14/1 203/15/1 204/16/1
f 3/13/1 6/14/1 205/15/1 203/16/1
f 30/13/1 32/14/1 206/15/1 207/16/1
f 32/13/1 34/14/1 208/15/1 206/16/1
f 1/17/1 2/18/1 3/19/1 4/20/1
f 2/17/1 5/18/1 6/19/1 3/20/1
f 29/17/1 31/18/1 32/19/1 30/20/1
f 31/17/1 33/18/1 34/19/1 32/20/1
f 53/21/1 55/22/1 56/23/1 54/24/1
f 55/25/1 209/26/1 210/27/1 56/28/1
f 211/29/1 57/30/1 60/31/1 212/32/1
f 57/5/1 58/10/1 59/11/1 60/8/1
f 75/21/1 77/22/1 78/23/1 76/24/1
f 77/25/1 213/26/1 214/27/1 78/28/1
f 215/29/1 79/30/1 82/31/1 216/32/1
f 79/5/1 80/10/1 81/11/1 82/8/1

g mesh_0003
f 18/25/1 20/33/1 217/34/1 218/28/1

g mesh_0004
f 219/25/1 220/35/1 221/36/1 222/28/1
f 223/25/1 224/35/1 225/36/1 226/28/1
f 227/37/1 228/38/1 220/39/1 219/40/1
f 229/37/1 230/38/1 224/39/1 223/40/1
f 231/37/1 232/38/1 228/39/1 227/40/1
f 233/37/1 234/38/1 230/39/1 229/40/1
f 235/37/1 236/38/1 232/39/1 231/40/1
f 237/37/1 238/38/1 234/39/1 233/40/1
f 239/37/1 240/38/1 236/39/1 235/40/1
f 241/37/1 242/38/1 238/39/1 237/40/1
f 243/37/1 244/38/1 240/39/1 239/40/1
f 245/37/1 246/38/1 242/39/1 241/40/1
f 247/37/1 248/38/1 244/39/1 243/40/1
f 249/37/1 250/38/1 246/39/1 245/40/1
f 251/37/1 252/38/1 248/39/1 247/40/1
f 253/37/1 254/38/1 250/39/1 249/40/1
f 255/37/1 256/38/1 252/39/1 251/40/1
f 257/37/1 258/38/1 254/39/1 253/40/1
f 259/37/1 260/38/1 256/39/1 255/40/1
f 261/37/1 262/38/1 258/39/1 257/40/1
f 263/37/1 264/38/1 260/39/1 259/40/1
f 265/37/1 266/38/1 262/39/1 261/40/1
f 267/37/1 268/38/1 264/39/1 263/40/1
f 269/37/1 270/38/1 266/39/1 265/40/1
f 271/37/1 272/38/1 268/39/1 267/40/1
f 273/37/1 274/38/1 270/39/1 269/40/1
f 275/37/1 276/38/1 272/39/1 271/40/1
f 277/37/1 278/38/1 274/39/1 273/40/1
f 279/41/1 280/42/1 276/43/1 275/44/1
f 280/45/1 281/46/1 282/47/1 276/48/1
f 283/49/1 284/50/1 277/51/1 285/52/1
f 284/53/1 286/54/1 278/55/1 277/56/1
f 287/57/1 288/58/1 280/59/1 279/60/1
f 288/61/1 289/62/1 281/63/1 280/64/1
f 289/45/1 290/46/1 291/47/1 281/48/1
f 292/49/1 293/50/1 283/51/1 294/52/1
f 293/65/1 295/66/1 284/67/1 283/68/1
f 295/21/1 296/69/1 286/70/1 284/24/1
f 297/57/1 298/58/1 289/59/1 288/60/1
f 298/61/1 299/62/1 290/63/1 289/64/1
f 299/45/1 300/46/1 301/47/1 290/48/1
f 302/49/1 303/50/1 292/51/1 304/52/1
f 303/65/1 305/66/1 293/67/1 292/68/1
f 305/21/1 306/69/1 295/70/1 293/24/1
f 307/57/1 308/58/1 299/59/1 298/60/1
f 308/61/1 309/62/1 300/63/1 299/64/1
f 309/45/1 310/46/1 311/47/1 300/48/1
f 312/49/1 313/50/1 302/51/1 314/52/1
f 313/65/1 315/66/1 303/67/1 302/68/1
f 315/21/1 316/69/1 305/70/1 303/24/1
f 317/57/1 318/58/1 309/59/1 308/60/1
f 318/61/1 319/62/1 310/63/1 309/64/1
f 319/45/1 320/46/1 321/47/1 310/48/1
f 322/49/1 323/50/1 312/51/1 324/52/1
f 323/65/1 325/66/1 313/67/1 312/68/1
f 325/21/1 326/69/1 315/70/1 313/24/1
f 327/57/1 328/58/1 319/59/1 318/60/1
f 328/61/1 329/62/1 320/63/1 319/64/1
f 329/45/1 330/46/1 331/47/1 320/48/1
f 332/49/1 333/50/1 322/51/1 334/52/1
f 333/65/1 335/66/1 323/67/1 322/68/1
f 335/21/1 336/69/1 325/70/1 323/24/1
f 337/57/1 338/58/1 329/59/1 328/60/1
f 338/61/1 339/62/1 330/63/1 329/64/1
f 339/45/1 340/46/1 341/47/1 330/48/1
f 342/49/1 343/50/1 332/51/1 344/52/1
f 343/65/1 345/66/1 333/67/1 332/68/1
f 345/21/1 346/69/1 335/70/1 333/24/1
f 347/57/1 348/58/1 339/59/1 338/60/1
f 348/61/1 349/62/1 340/63/1 339/64/1
f 349/45/1 350/46/1 351/47/1 340/48/1
f 352/49/1 353/50/1 342/51/1 354/52/1
f 353/65/1 355/66/1 343/67/1 342/68/1
f 355/21/1 356/69/1 345/70/1 343/24/1
f 357/57/1 358/58/1 349/59/1 348/60/1
f 358/71/1 359/72/1 350/73/1 349/74/1
f 360/75/1 361/76/1 353/77/1 352/78/1
f 361/21/1 362/69/1 355/70/1 353/24/1
f 363/37/1 364/38/1 359/39/1 358/40/1
f 365/37/1 366/38/1 361/39/1 360/40/1
f 367/37/1 368/38/1 364/39/1 363/40/1
f 369/37/1 370/38/1 366/39/1 365/40/1
f 371/37/1 372/38/1 368/39/1 367/40/1
f 373/37/1 374/38/1 370/39/1 369/40/1
f 375/37/1 376/38/1 372/39/1 371/40/1
f 377/37/1 378/38/1 374/39/1 373/40/1
f 379/37/1 380/38/1 376/39/1 375/40/1
f 381/37/1 382/38/1 378/39/1 377/40/1
f 383/37/1 384/38/1 380/39/1 379/40/1
f 385/37/1 386/38/1 382/39/1 381/40/1
f 387/37/1 388/38/1 384/39/1 383/40/1
f 389/37/1 390/38/1 386/39/1 385/40/1
f 391/37/1 392/38/1 388/39/1 387/40/1
f 393/37/1 394/38/1 390/39/1 389/40/1
f 395/37/1 396/38/1 392/39/1 391/40/1
f 397/37/1 398/38/1 394/39/1 393/40/1
f 399/37/1 400/38/1 396/39/1 395/40/1
f 401/37/1 402/38/1 398/39/1 397/40/1
f 59/79/1 62/80/1 400/81/1 399/82/1
f 74/79/1 76/80/1 402/81/1 401/82/1
f 403/25/1 404/35/1 405/36/1 406/28/1
f 407/25/1 408/35/1 409/36/1 410/28/1
f 411/37/1 412/38/1 404/39/1 403/40/1
f 413/37/1 414/38/1 408/39/1 407/40/1
f 415/37/1 416/38/1 412/39/1 411/40/1
f 417/37/1 418/38/1 414/39/1 413/40/1
f 419/37/1 420/38/1 416/39/1 415/40/1
f 421/37/1 422/38/1 418/39/1 417/40/1
f 423/37/1 424/38/1 420/39/1 419/40/1
f 425/37/1 426/38/1 422/39/1 421/40/1
f 427/37/1 428/38/1 424/39/1 423/40/1
f 429/37/1 430/38/1 426/39/1 425/40/1
f 431/37/1 432/38/1 428/39/1 427/40/1
f 433/37/1 434/38/1 430/39/1 429/40/1
f 435/37/1 436/38/1 432/39/1 431/40/1
f 437/37/1 438/38/1 434/39/1 433/40/1
f 130/79/1 132/80/1 436/81/1 435/82/1
f 172/79/1 174/80/1 438/81/1 437/82/1

g mesh_0005
f 60/83/1 59/84/1 399/85/1 439/86/1
f 59/87/1 62/88/1 400/89/1 399/90/1
f 62/91/1 64/92/1 440/93/1 400/94/1
f 72/83/1 74/84/1 401/85/1 441/86/1
f 74/87/1 76/88/1 402/89/1 401/90/1
f 76/91/1 78/92/1 442/93/1 402/94/1
f 128/83/1 130/84/1 435/85/1 443/86/1
f 130/87/1 132/88/1 436/89/1 435/90/1
f 132/91/1 134/92/1 444/93/1 436/94/1
f 170/83/1 172/84/1 437/85/1 445/86/1
f 172/87/1 174/88/1 438/89/1 437/90/1
f 174/91/1 176/92/1 446/93/1 438/94/1

g mesh_0006
f 411/25/1 412/95/1 404/96/1 403/28/1
f 412/25/1 447/95/1 448/96/1 404/28/1
f 449/25/1 413/95/1 407/96/1 450/28/1
f 413/25/1 414/95/1 408/96/1 407/28/1
f 415/25/1 416/95/1 412/96/1 411/28/1
f 416/25/1 451/95/1 447/96/1 412/28/1
f 452/25/1 417/95/1 413/96/1 449/28/1
f 417/25/1 418/95/1 414/96/1 413/28/1
f 419/25/1 420/95/1 416/96/1 415/28/1
f 420/25/1 453/95/1 451/96/1 416/28/1
f 454/25/1 421/95/1 417/96/1 452/28/1
f 421/25/1 422/95/1 418/96/1 417/28/1
f 455/25/1 456/95/1 457/96/1 458/28/1
f 456/25/1 423/95/1 419/96/1 457/28/1
f 423/25/1 424/95/1 420/96/1 419/28/1
f 424/25/1 459/95/1 453/96/1 420/28/1
f 459/25/1 460/95/1 461/96/1 453/28/1
f 460/25/1 462/95/1 463/96/1 461/28/1
f 464/25/1 465/95/1 466/96/1 467/28/1
f 465/25/1 468/95/1 454/96/1 466/28/1
f 468/25/1 425/95/1 421/96/1 454/28/1
f 425/25/1 426/95/1 422/96/1 421/28/1
f 426/25/1 469/95/1 470/96/1 422/28/1
f 469/25/1 471/95/1 472/96/1 470/28/1
f 124/25/1 126/95/1 473/96/1 474/28/1
f 126/25/1 128/95/1 443/96/1 473/28/1
f 128/25/1 130/95/1 435/96/1 443/28/1
f 130/25/1 132/95/1 436/96/1 435/28/1
f 132/25/1 134/95/1 444/96/1 436/28/1
f 134/25/1 136/95/1 475/96/1 444/28/1
f 136/25/1 138/95/1 476/96/1 475/28/1
f 138/25/1 140/95/1 477/96/1 476/28/1
f 164/25/1 166/95/1 478/96/1 479/28/1
f 166/25/1 168/95/1 480/96/1 478/28/1
f 168/25/1 170/95/1 445/96/1 480/28/1
f 170/25/1 172/95/1 437/96/1 445/28/1
f 172/25/1 174/95/1 438/96/1 437/28/1
f 174/25/1 176/95/1 446/96/1 438/28/1
f 176/25/1 178/95/1 481/96/1 446/28/1
f 178/25/1 180/95/1 482/96/1 481/28/1

