# Wavefront OBJ file automatically generated by Tiled2Unity

# Vertices (Count = 467)
v -40 -6 0
v -41 -6 0
v -41 -5 0
v -40 -5 0
v -42 -6 0
v -42 -5 0
v -40 -7 0
v -41 -7 0
v -42 -7 0
v -37 -8 0
v -38 -8 0
v -38 -7 0
v -37 -7 0
v -40 -8 0
v -41 -8 0
v -42 -8 0
v -37 -9 0
v -38 -9 0
v -40 -9 0
v -41 -9 0
v -42 -9 0
v -34 -10 0
v -35 -10 0
v -35 -9 0
v -34 -9 0
v -37 -10 0
v -38 -10 0
v -40 -10 0
v -41 -10 0
v -42 -10 0
v -18 -11 0
v -19 -11 0
v -19 -10 0
v -18 -10 0
v -34 -11 0
v -35 -11 0
v -40 -11 0
v -41 -11 0
v -42 -11 0
v -10 -12 0
v -11 -12 0
v -11 -11 0
v -10 -11 0
v -17 -12 0
v -18 -12 0
v -17 -11 0
v -19 -12 0
v -20 -12 0
v -20 -11 0
v -31 -12 0
v -32 -12 0
v -32 -11 0
v -31 -11 0
v -40 -12 0
v -41 -12 0
v -42 -12 0
v -9 -13 0
v -10 -13 0
v -9 -12 0
v -11 -13 0
v -16 -13 0
v -17 -13 0
v -16 -12 0
v -18 -13 0
v -19 -13 0
v -20 -13 0
v -21 -13 0
v -21 -12 0
v -31 -13 0
v -32 -13 0
v -40 -13 0
v -41 -13 0
v -42 -13 0
v 0 -14 0
v -1 -14 0
v -1 -13 0
v 0 -13 0
v -2 -14 0
v -2 -13 0
v -3 -14 0
v -3 -13 0
v -4 -14 0
v -4 -13 0
v -5 -14 0
v -5 -13 0
v -6 -14 0
v -6 -13 0
v -7 -14 0
v -7 -13 0
v -8 -14 0
v -8 -13 0
v -9 -14 0
v -10 -14 0
v -11 -14 0
v -12 -14 0
v -12 -13 0
v -13 -14 0
v -13 -13 0
v -14 -14 0
v -14 -13 0
v -15 -14 0
v -15 -13 0
v -16 -14 0
v -17 -14 0
v -18 -14 0
v -19 -14 0
v -20 -14 0
v -21 -14 0
v -22 -14 0
v -22 -13 0
v -23 -14 0
v -23 -13 0
v -24 -14 0
v -24 -13 0
v -25 -14 0
v -25 -13 0
v -26 -14 0
v -26 -13 0
v -27 -14 0
v -27 -13 0
v -28 -14 0
v -28 -13 0
v -29 -14 0
v -29 -13 0
v -30 -14 0
v -30 -13 0
v -31 -14 0
v -32 -14 0
v -33 -14 0
v -33 -13 0
v -34 -14 0
v -34 -13 0
v -35 -14 0
v -35 -13 0
v -36 -14 0
v -36 -13 0
v -37 -14 0
v -37 -13 0
v -38 -14 0
v -38 -13 0
v -39 -14 0
v -39 -13 0
v -40 -14 0
v -41 -14 0
v -42 -14 0
v -43 -14 0
v -43 -13 0
v -44 -14 0
v -44 -13 0
v -45 -14 0
v -45 -13 0
v -46 -14 0
v -46 -13 0
v -47 -14 0
v -47 -13 0
v -48 -14 0
v -48 -13 0
v -49 -14 0
v -49 -13 0
v -50 -14 0
v -50 -13 0
v 0 -15 0
v -1 -15 0
v -2 -15 0
v -3 -15 0
v -4 -15 0
v -5 -15 0
v -6 -15 0
v -7 -15 0
v -8 -15 0
v -9 -15 0
v -10 -15 0
v -11 -15 0
v -12 -15 0
v -13 -15 0
v -14 -15 0
v -15 -15 0
v -16 -15 0
v -17 -15 0
v -18 -15 0
v -19 -15 0
v -20 -15 0
v -21 -15 0
v -22 -15 0
v -23 -15 0
v -24 -15 0
v -25 -15 0
v -26 -15 0
v -27 -15 0
v -28 -15 0
v -29 -15 0
v -30 -15 0
v -31 -15 0
v -32 -15 0
v -33 -15 0
v -34 -15 0
v -35 -15 0
v -36 -15 0
v -37 -15 0
v -38 -15 0
v -39 -15 0
v -40 -15 0
v -41 -15 0
v -42 -15 0
v -43 -15 0
v -44 -15 0
v -45 -15 0
v -46 -15 0
v -47 -15 0
v -48 -15 0
v -49 -15 0
v -50 -15 0
v 0 -16 0
v -1 -16 0
v -2 -16 0
v -3 -16 0
v -4 -16 0
v -5 -16 0
v -6 -16 0
v -7 -16 0
v -8 -16 0
v -9 -16 0
v -10 -16 0
v -11 -16 0
v -12 -16 0
v -13 -16 0
v -14 -16 0
v -15 -16 0
v -16 -16 0
v -17 -16 0
v -18 -16 0
v -19 -16 0
v -20 -16 0
v -21 -16 0
v -22 -16 0
v -23 -16 0
v -24 -16 0
v -25 -16 0
v -26 -16 0
v -27 -16 0
v -28 -16 0
v -29 -16 0
v -30 -16 0
v -31 -16 0
v -32 -16 0
v -33 -16 0
v -34 -16 0
v -35 -16 0
v -36 -16 0
v -37 -16 0
v -38 -16 0
v -39 -16 0
v -40 -16 0
v -41 -16 0
v -42 -16 0
v -43 -16 0
v -44 -16 0
v -45 -16 0
v -46 -16 0
v -47 -16 0
v -48 -16 0
v -49 -16 0
v -50 -16 0
v 0 -17 0
v -1 -17 0
v -2 -17 0
v -3 -17 0
v -4 -17 0
v -5 -17 0
v -6 -17 0
v -7 -17 0
v -8 -17 0
v -9 -17 0
v -10 -17 0
v -11 -17 0
v -12 -17 0
v -13 -17 0
v -14 -17 0
v -15 -17 0
v -16 -17 0
v -17 -17 0
v -18 -17 0
v -19 -17 0
v -20 -17 0
v -21 -17 0
v -22 -17 0
v -23 -17 0
v -24 -17 0
v -25 -17 0
v -26 -17 0
v -27 -17 0
v -28 -17 0
v -29 -17 0
v -30 -17 0
v -31 -17 0
v -32 -17 0
v -33 -17 0
v -34 -17 0
v -35 -17 0
v -36 -17 0
v -37 -17 0
v -38 -17 0
v -39 -17 0
v -40 -17 0
v -41 -17 0
v -42 -17 0
v -43 -17 0
v -44 -17 0
v -45 -17 0
v -46 -17 0
v -47 -17 0
v -48 -17 0
v -49 -17 0
v -50 -17 0
v 0 -18 0
v -1 -18 0
v -2 -18 0
v -3 -18 0
v -4 -18 0
v -5 -18 0
v -6 -18 0
v -7 -18 0
v -8 -18 0
v -9 -18 0
v -10 -18 0
v -11 -18 0
v -12 -18 0
v -13 -18 0
v -14 -18 0
v -15 -18 0
v -16 -18 0
v -17 -18 0
v -18 -18 0
v -19 -18 0
v -20 -18 0
v -21 -18 0
v -22 -18 0
v -23 -18 0
v -24 -18 0
v -25 -18 0
v -26 -18 0
v -27 -18 0
v -28 -18 0
v -29 -18 0
v -30 -18 0
v -31 -18 0
v -32 -18 0
v -33 -18 0
v -34 -18 0
v -35 -18 0
v -36 -18 0
v -37 -18 0
v -38 -18 0
v -39 -18 0
v -40 -18 0
v -41 -18 0
v -42 -18 0
v -43 -18 0
v -44 -18 0
v -45 -18 0
v -46 -18 0
v -47 -18 0
v -48 -18 0
v -49 -18 0
v -50 -18 0
v 0 -19 0
v -1 -19 0
v -2 -19 0
v -3 -19 0
v -4 -19 0
v -5 -19 0
v -6 -19 0
v -7 -19 0
v -8 -19 0
v -9 -19 0
v -10 -19 0
v -11 -19 0
v -12 -19 0
v -13 -19 0
v -14 -19 0
v -15 -19 0
v -16 -19 0
v -17 -19 0
v -18 -19 0
v -19 -19 0
v -20 -19 0
v -21 -19 0
v -22 -19 0
v -23 -19 0
v -24 -19 0
v -25 -19 0
v -26 -19 0
v -27 -19 0
v -28 -19 0
v -29 -19 0
v -30 -19 0
v -31 -19 0
v -32 -19 0
v -33 -19 0
v -34 -19 0
v -35 -19 0
v -36 -19 0
v -37 -19 0
v -38 -19 0
v -39 -19 0
v -40 -19 0
v -41 -19 0
v -42 -19 0
v -43 -19 0
v -44 -19 0
v -45 -19 0
v -46 -19 0
v -47 -19 0
v -48 -19 0
v -49 -19 0
v -50 -19 0
v 0 -20 0
v -1 -20 0
v -2 -20 0
v -3 -20 0
v -4 -20 0
v -5 -20 0
v -6 -20 0
v -7 -20 0
v -8 -20 0
v -9 -20 0
v -10 -20 0
v -11 -20 0
v -12 -20 0
v -13 -20 0
v -14 -20 0
v -15 -20 0
v -16 -20 0
v -17 -20 0
v -18 -20 0
v -19 -20 0
v -20 -20 0
v -21 -20 0
v -22 -20 0
v -23 -20 0
v -24 -20 0
v -25 -20 0
v -26 -20 0
v -27 -20 0
v -28 -20 0
v -29 -20 0
v -30 -20 0
v -31 -20 0
v -32 -20 0
v -33 -20 0
v -34 -20 0
v -35 -20 0
v -36 -20 0
v -37 -20 0
v -38 -20 0
v -39 -20 0
v -40 -20 0
v -41 -20 0
v -42 -20 0
v -43 -20 0
v -44 -20 0
v -45 -20 0
v -46 -20 0
v -47 -20 0
v -48 -20 0
v -49 -20 0
v -50 -20 0

# Texture cooridinates (Count = 48)
vt 0.0001220703 0.8751221
vt 0.06237793 0.8751221
vt 0.06237793 0.9373779
vt 0.0001220703 0.9373779
vt 0.1251221 0.8751221
vt 0.1873779 0.8751221
vt 0.1873779 0.9373779
vt 0.1251221 0.9373779
vt 0.0001220703 0.8126221
vt 0.06237793 0.8126221
vt 0.06237793 0.8748779
vt 0.0001220703 0.8748779
vt 0.1251221 0.8126221
vt 0.1873779 0.8126221
vt 0.1873779 0.8748779
vt 0.1251221 0.8748779
vt 0.1876221 0.8751221
vt 0.2498779 0.8751221
vt 0.2498779 0.9373779
vt 0.1876221 0.9373779
vt 0.1876221 0.8126221
vt 0.2498779 0.8126221
vt 0.2498779 0.8748779
vt 0.1876221 0.8748779
vt 0.1876221 0.7501221
vt 0.2498779 0.7501221
vt 0.2498779 0.8123779
vt 0.1876221 0.8123779
vt 0.06262207 0.8751221
vt 0.1248779 0.8751221
vt 0.1248779 0.9373779
vt 0.06262207 0.9373779
vt 0.06262207 0.8126221
vt 0.1248779 0.8126221
vt 0.1248779 0.8748779
vt 0.06262207 0.8748779
vt 0.0001220703 0.7501221
vt 0.06237793 0.7501221
vt 0.06237793 0.8123779
vt 0.0001220703 0.8123779
vt 0.06262207 0.7501221
vt 0.1248779 0.7501221
vt 0.1248779 0.8123779
vt 0.06262207 0.8123779
vt 0.1251221 0.7501221
vt 0.1873779 0.7501221
vt 0.1873779 0.8123779
vt 0.1251221 0.8123779

# Normal
vn 0 0 -1

# Groups (Count = 1)

g mesh_0001
f 1/1/1 2/2/1 3/3/1 4/4/1
f 2/5/1 5/6/1 6/7/1 3/8/1
f 7/9/1 8/10/1 2/11/1 1/12/1
f 8/13/1 9/14/1 5/15/1 2/16/1
f 10/17/1 11/18/1 12/19/1 13/20/1
f 14/9/1 15/10/1 8/11/1 7/12/1
f 15/13/1 16/14/1 9/15/1 8/16/1
f 17/21/1 18/22/1 11/23/1 10/24/1
f 19/9/1 20/10/1 15/11/1 14/12/1
f 20/13/1 21/14/1 16/15/1 15/16/1
f 22/17/1 23/18/1 24/19/1 25/20/1
f 26/25/1 27/26/1 18/27/1 17/28/1
f 28/9/1 29/10/1 20/11/1 19/12/1
f 29/13/1 30/14/1 21/15/1 20/16/1
f 31/17/1 32/18/1 33/19/1 34/20/1
f 35/25/1 36/26/1 23/27/1 22/28/1
f 37/9/1 38/10/1 29/11/1 28/12/1
f 38/13/1 39/14/1 30/15/1 29/16/1
f 40/17/1 41/18/1 42/19/1 43/20/1
f 44/17/1 45/18/1 31/19/1 46/20/1
f 45/21/1 47/22/1 32/23/1 31/24/1
f 47/17/1 48/18/1 49/19/1 32/20/1
f 50/17/1 51/18/1 52/19/1 53/20/1
f 54/9/1 55/10/1 38/11/1 37/12/1
f 55/13/1 56/14/1 39/15/1 38/16/1
f 57/1/1 58/2/1 40/3/1 59/4/1
f 58/5/1 60/6/1 41/7/1 40/8/1
f 61/17/1 62/18/1 44/19/1 63/20/1
f 62/17/1 64/18/1 45/19/1 44/20/1
f 64/21/1 65/22/1 47/23/1 45/24/1
f 65/17/1 66/18/1 48/19/1 47/20/1
f 66/17/1 67/18/1 68/19/1 48/20/1
f 69/21/1 70/22/1 51/23/1 50/24/1
f 71/9/1 72/10/1 55/11/1 54/12/1
f 72/13/1 73/14/1 56/15/1 55/16/1
f 74/1/1 75/2/1 76/3/1 77/4/1
f 75/29/1 78/30/1 79/31/1 76/32/1
f 78/29/1 80/30/1 81/31/1 79/32/1
f 80/29/1 82/30/1 83/31/1 81/32/1
f 82/29/1 84/30/1 85/31/1 83/32/1
f 84/29/1 86/30/1 87/31/1 85/32/1
f 86/29/1 88/30/1 89/31/1 87/32/1
f 88/29/1 90/30/1 91/31/1 89/32/1
f 90/29/1 92/30/1 57/31/1 91/32/1
f 92/29/1 93/30/1 58/31/1 57/32/1
f 93/29/1 94/30/1 60/31/1 58/32/1
f 94/29/1 95/30/1 96/31/1 60/32/1
f 95/29/1 97/30/1 98/31/1 96/32/1
f 97/29/1 99/30/1 100/31/1 98/32/1
f 99/29/1 101/30/1 102/31/1 100/32/1
f 101/29/1 103/30/1 61/31/1 102/32/1
f 103/29/1 104/30/1 62/31/1 61/32/1
f 104/29/1 105/30/1 64/31/1 62/32/1
f 105/29/1 106/30/1 65/31/1 64/32/1
f 106/29/1 107/30/1 66/31/1 65/32/1
f 107/29/1 108/30/1 67/31/1 66/32/1
f 108/29/1 109/30/1 110/31/1 67/32/1
f 109/29/1 111/30/1 112/31/1 110/32/1
f 111/29/1 113/30/1 114/31/1 112/32/1
f 113/29/1 115/30/1 116/31/1 114/32/1
f 115/29/1 117/30/1 118/31/1 116/32/1
f 117/29/1 119/30/1 120/31/1 118/32/1
f 119/29/1 121/30/1 122/31/1 120/32/1
f 121/29/1 123/30/1 124/31/1 122/32/1
f 123/29/1 125/30/1 126/31/1 124/32/1
f 125/29/1 127/30/1 69/31/1 126/32/1
f 127/29/1 128/30/1 70/31/1 69/32/1
f 128/29/1 129/30/1 130/31/1 70/32/1
f 129/29/1 131/30/1 132/31/1 130/32/1
f 131/29/1 133/30/1 134/31/1 132/32/1
f 133/29/1 135/30/1 136/31/1 134/32/1
f 135/29/1 137/30/1 138/31/1 136/32/1
f 137/29/1 139/30/1 140/31/1 138/32/1
f 139/29/1 141/30/1 142/31/1 140/32/1
f 141/29/1 143/30/1 71/31/1 142/32/1
f 143/29/1 144/30/1 72/31/1 71/32/1
f 144/29/1 145/30/1 73/31/1 72/32/1
f 145/29/1 146/30/1 147/31/1 73/32/1
f 146/29/1 148/30/1 149/31/1 147/32/1
f 148/29/1 150/30/1 151/31/1 149/32/1
f 150/29/1 152/30/1 153/31/1 151/32/1
f 152/29/1 154/30/1 155/31/1 153/32/1
f 154/29/1 156/30/1 157/31/1 155/32/1
f 156/29/1 158/30/1 159/31/1 157/32/1
f 158/5/1 160/6/1 161/7/1 159/8/1
f 162/9/1 163/10/1 75/11/1 74/12/1
f 163/33/1 164/34/1 78/35/1 75/36/1
f 164/33/1 165/34/1 80/35/1 78/36/1
f 165/33/1 166/34/1 82/35/1 80/36/1
f 166/33/1 167/34/1 84/35/1 82/36/1
f 167/33/1 168/34/1 86/35/1 84/36/1
f 168/33/1 169/34/1 88/35/1 86/36/1
f 169/33/1 170/34/1 90/35/1 88/36/1
f 170/33/1 171/34/1 92/35/1 90/36/1
f 171/33/1 172/34/1 93/35/1 92/36/1
f 172/33/1 173/34/1 94/35/1 93/36/1
f 173/33/1 174/34/1 95/35/1 94/36/1
f 174/33/1 175/34/1 97/35/1 95/36/1
f 175/33/1 176/34/1 99/35/1 97/36/1
f 176/33/1 177/34/1 101/35/1 99/36/1
f 177/33/1 178/34/1 103/35/1 101/36/1
f 178/33/1 179/34/1 104/35/1 103/36/1
f 179/33/1 180/34/1 105/35/1 104/36/1
f 180/33/1 181/34/1 106/35/1 105/36/1
f 181/33/1 182/34/1 107/35/1 106/36/1
f 182/33/1 183/34/1 108/35/1 107/36/1
f 183/33/1 184/34/1 109/35/1 108/36/1
f 184/33/1 185/34/1 111/35/1 109/36/1
f 185/33/1 186/34/1 113/35/1 111/36/1
f 186/33/1 187/34/1 115/35/1 113/36/1
f 187/33/1 188/34/1 117/35/1 115/36/1
f 188/33/1 189/34/1 119/35/1 117/36/1
f 189/33/1 190/34/1 121/35/1 119/36/1
f 190/33/1 191/34/1 123/35/1 121/36/1
f 191/33/1 192/34/1 125/35/1 123/36/1
f 192/33/1 193/34/1 127/35/1 125/36/1
f 193/33/1 194/34/1 128/35/1 127/36/1
f 194/33/1 195/34/1 129/35/1 128/36/1
f 195/33/1 196/34/1 131/35/1 129/36/1
f 196/33/1 197/34/1 133/35/1 131/36/1
f 197/33/1 198/34/1 135/35/1 133/36/1
f 198/33/1 199/34/1 137/35/1 135/36/1
f 199/33/1 200/34/1 139/35/1 137/36/1
f 200/33/1 201/34/1 141/35/1 139/36/1
f 201/33/1 202/34/1 143/35/1 141/36/1
f 202/33/1 203/34/1 144/35/1 143/36/1
f 203/33/1 204/34/1 145/35/1 144/36/1
f 204/33/1 205/34/1 146/35/1 145/36/1
f 205/33/1 206/34/1 148/35/1 146/36/1
f 206/33/1 207/34/1 150/35/1 148/36/1
f 207/33/1 208/34/1 152/35/1 150/36/1
f 208/33/1 209/34/1 154/35/1 152/36/1
f 209/33/1 210/34/1 156/35/1 154/36/1
f 210/33/1 211/34/1 158/35/1 156/36/1
f 211/13/1 212/14/1 160/15/1 158/16/1
f 213/9/1 214/10/1 163/11/1 162/12/1
f 214/33/1 215/34/1 164/35/1 163/36/1
f 215/33/1 216/34/1 165/35/1 164/36/1
f 216/33/1 217/34/1 166/35/1 165/36/1
f 217/33/1 218/34/1 167/35/1 166/36/1
f 218/33/1 219/34/1 168/35/1 167/36/1
f 219/33/1 220/34/1 169/35/1 168/36/1
f 220/33/1 221/34/1 170/35/1 169/36/1
f 221/33/1 222/34/1 171/35/1 170/36/1
f 222/33/1 223/34/1 172/35/1 171/36/1
f 223/33/1 224/34/1 173/35/1 172/36/1
f 224/33/1 225/34/1 174/35/1 173/36/1
f 225/33/1 226/34/1 175/35/1 174/36/1
f 226/33/1 227/34/1 176/35/1 175/36/1
f 227/33/1 228/34/1 177/35/1 176/36/1
f 228/33/1 229/34/1 178/35/1 177/36/1
f 229/33/1 230/34/1 179/35/1 178/36/1
f 230/33/1 231/34/1 180/35/1 179/36/1
f 231/33/1 232/34/1 181/35/1 180/36/1
f 232/33/1 233/34/1 182/35/1 181/36/1
f 233/33/1 234/34/1 183/35/1 182/36/1
f 234/33/1 235/34/1 184/35/1 183/36/1
f 235/33/1 236/34/1 185/35/1 184/36/1
f 236/33/1 237/34/1 186/35/1 185/36/1
f 237/33/1 238/34/1 187/35/1 186/36/1
f 238/33/1 239/34/1 188/35/1 187/36/1
f 239/33/1 240/34/1 189/35/1 188/36/1
f 240/33/1 241/34/1 190/35/1 189/36/1
f 241/33/1 242/34/1 191/35/1 190/36/1
f 242/33/1 243/34/1 192/35/1 191/36/1
f 243/33/1 244/34/1 193/35/1 192/36/1
f 244/33/1 245/34/1 194/35/1 193/36/1
f 245/33/1 246/34/1 195/35/1 194/36/1
f 246/33/1 247/34/1 196/35/1 195/36/1
f 247/33/1 248/34/1 197/35/1 196/36/1
f 248/33/1 249/34/1 198/35/1 197/36/1
f 249/33/1 250/34/1 199/35/1 198/36/1
f 250/33/1 251/34/1 200/35/1 199/36/1
f 251/33/1 252/34/1 201/35/1 200/36/1
f 252/33/1 253/34/1 202/35/1 201/36/1
f 253/33/1 254/34/1 203/35/1 202/36/1
f 254/33/1 255/34/1 204/35/1 203/36/1
f 255/33/1 256/34/1 205/35/1 204/36/1
f 256/33/1 257/34/1 206/35/1 205/36/1
f 257/33/1 258/34/1 207/35/1 206/36/1
f 258/33/1 259/34/1 208/35/1 207/36/1
f 259/33/1 260/34/1 209/35/1 208/36/1
f 260/33/1 261/34/1 210/35/1 209/36/1
f 261/33/1 262/34/1 211/35/1 210/36/1
f 262/13/1 263/14/1 212/15/1 211/16/1
f 264/9/1 265/10/1 214/11/1 213/12/1
f 265/33/1 266/34/1 215/35/1 214/36/1
f 266/33/1 267/34/1 216/35/1 215/36/1
f 267/33/1 268/34/1 217/35/1 216/36/1
f 268/33/1 269/34/1 218/35/1 217/36/1
f 269/33/1 270/34/1 219/35/1 218/36/1
f 270/33/1 271/34/1 220/35/1 219/36/1
f 271/33/1 272/34/1 221/35/1 220/36/1
f 272/33/1 273/34/1 222/35/1 221/36/1
f 273/33/1 274/34/1 223/35/1 222/36/1
f 274/33/1 275/34/1 224/35/1 223/36/1
f 275/33/1 276/34/1 225/35/1 224/36/1
f 276/33/1 277/34/1 226/35/1 225/36/1
f 277/33/1 278/34/1 227/35/1 226/36/1
f 278/33/1 279/34/1 228/35/1 227/36/1
f 279/33/1 280/34/1 229/35/1 228/36/1
f 280/33/1 281/34/1 230/35/1 229/36/1
f 281/33/1 282/34/1 231/35/1 230/36/1
f 282/33/1 283/34/1 232/35/1 231/36/1
f 283/33/1 284/34/1 233/35/1 232/36/1
f 284/33/1 285/34/1 234/35/1 233/36/1
f 285/33/1 286/34/1 235/35/1 234/36/1
f 286/33/1 287/34/1 236/35/1 235/36/1
f 287/33/1 288/34/1 237/35/1 236/36/1
f 288/33/1 289/34/1 238/35/1 237/36/1
f 289/33/1 290/34/1 239/35/1 238/36/1
f 290/33/1 291/34/1 240/35/1 239/36/1
f 291/33/1 292/34/1 241/35/1 240/36/1
f 292/33/1 293/34/1 242/35/1 241/36/1
f 293/33/1 294/34/1 243/35/1 242/36/1
f 294/33/1 295/34/1 244/35/1 243/36/1
f 295/33/1 296/34/1 245/35/1 244/36/1
f 296/33/1 297/34/1 246/35/1 245/36/1
f 297/33/1 298/34/1 247/35/1 246/36/1
f 298/33/1 299/34/1 248/35/1 247/36/1
f 299/33/1 300/34/1 249/35/1 248/36/1
f 300/33/1 301/34/1 250/35/1 249/36/1
f 301/33/1 302/34/1 251/35/1 250/36/1
f 302/33/1 303/34/1 252/35/1 251/36/1
f 303/33/1 304/34/1 253/35/1 252/36/1
f 304/33/1 305/34/1 254/35/1 253/36/1
f 305/33/1 306/34/1 255/35/1 254/36/1
f 306/33/1 307/34/1 256/35/1 255/36/1
f 307/33/1 308/34/1 257/35/1 256/36/1
f 308/33/1 309/34/1 258/35/1 257/36/1
f 309/33/1 310/34/1 259/35/1 258/36/1
f 310/33/1 311/34/1 260/35/1 259/36/1
f 311/33/1 312/34/1 261/35/1 260/36/1
f 312/33/1 313/34/1 262/35/1 261/36/1
f 313/13/1 314/14/1 263/15/1 262/16/1
f 315/9/1 316/10/1 265/11/1 264/12/1
f 316/33/1 317/34/1 266/35/1 265/36/1
f 317/33/1 318/34/1 267/35/1 266/36/1
f 318/33/1 319/34/1 268/35/1 267/36/1
f 319/33/1 320/34/1 269/35/1 268/36/1
f 320/33/1 321/34/1 270/35/1 269/36/1
f 321/33/1 322/34/1 271/35/1 270/36/1
f 322/33/1 323/34/1 272/35/1 271/36/1
f 323/33/1 324/34/1 273/35/1 272/36/1
f 324/33/1 325/34/1 274/35/1 273/36/1
f 325/33/1 326/34/1 275/35/1 274/36/1
f 326/33/1 327/34/1 276/35/1 275/36/1
f 327/33/1 328/34/1 277/35/1 276/36/1
f 328/33/1 329/34/1 278/35/1 277/36/1
f 329/33/1 330/34/1 279/35/1 278/36/1
f 330/33/1 331/34/1 280/35/1 279/36/1
f 331/33/1 332/34/1 281/35/1 280/36/1
f 332/33/1 333/34/1 282/35/1 281/36/1
f 333/33/1 334/34/1 283/35/1 282/36/1
f 334/33/1 335/34/1 284/35/1 283/36/1
f 335/33/1 336/34/1 285/35/1 284/36/1
f 336/33/1 337/34/1 286/35/1 285/36/1
f 337/33/1 338/34/1 287/35/1 286/36/1
f 338/33/1 339/34/1 288/35/1 287/36/1
f 339/33/1 340/34/1 289/35/1 288/36/1
f 340/33/1 341/34/1 290/35/1 289/36/1
f 341/33/1 342/34/1 291/35/1 290/36/1
f 342/33/1 343/34/1 292/35/1 291/36/1
f 343/33/1 344/34/1 293/35/1 292/36/1
f 344/33/1 345/34/1 294/35/1 293/36/1
f 345/33/1 346/34/1 295/35/1 294/36/1
f 346/33/1 347/34/1 296/35/1 295/36/1
f 347/33/1 348/34/1 297/35/1 296/36/1
f 348/33/1 349/34/1 298/35/1 297/36/1
f 349/33/1 350/34/1 299/35/1 298/36/1
f 350/33/1 351/34/1 300/35/1 299/36/1
f 351/33/1 352/34/1 301/35/1 300/36/1
f 352/33/1 353/34/1 302/35/1 301/36/1
f 353/33/1 354/34/1 303/35/1 302/36/1
f 354/33/1 355/34/1 304/35/1 303/36/1
f 355/33/1 356/34/1 305/35/1 304/36/1
f 356/33/1 357/34/1 306/35/1 305/36/1
f 357/33/1 358/34/1 307/35/1 306/36/1
f 358/33/1 359/34/1 308/35/1 307/36/1
f 359/33/1 360/34/1 309/35/1 308/36/1
f 360/33/1 361/34/1 310/35/1 309/36/1
f 361/33/1 362/34/1 311/35/1 310/36/1
f 362/33/1 363/34/1 312/35/1 311/36/1
f 363/33/1 364/34/1 313/35/1 312/36/1
f 364/13/1 365/14/1 314/15/1 313/16/1
f 366/9/1 367/10/1 316/11/1 315/12/1
f 367/33/1 368/34/1 317/35/1 316/36/1
f 368/33/1 369/34/1 318/35/1 317/36/1
f 369/33/1 370/34/1 319/35/1 318/36/1
f 370/33/1 371/34/1 320/35/1 319/36/1
f 371/33/1 372/34/1 321/35/1 320/36/1
f 372/33/1 373/34/1 322/35/1 321/36/1
f 373/33/1 374/34/1 323/35/1 322/36/1
f 374/33/1 375/34/1 324/35/1 323/36/1
f 375/33/1 376/34/1 325/35/1 324/36/1
f 376/33/1 377/34/1 326/35/1 325/36/1
f 377/33/1 378/34/1 327/35/1 326/36/1
f 378/33/1 379/34/1 328/35/1 327/36/1
f 379/33/1 380/34/1 329/35/1 328/36/1
f 380/33/1 381/34/1 330/35/1 329/36/1
f 381/33/1 382/34/1 331/35/1 330/36/1
f 382/33/1 383/34/1 332/35/1 331/36/1
f 383/33/1 384/34/1 333/35/1 332/36/1
f 384/33/1 385/34/1 334/35/1 333/36/1
f 385/33/1 386/34/1 335/35/1 334/36/1
f 386/33/1 387/34/1 336/35/1 335/36/1
f 387/33/1 388/34/1 337/35/1 336/36/1
f 388/33/1 389/34/1 338/35/1 337/36/1
f 389/33/1 390/34/1 339/35/1 338/36/1
f 390/33/1 391/34/1 340/35/1 339/36/1
f 391/33/1 392/34/1 341/35/1 340/36/1
f 392/33/1 393/34/1 342/35/1 341/36/1
f 393/33/1 394/34/1 343/35/1 342/36/1
f 394/33/1 395/34/1 344/35/1 343/36/1
f 395/33/1 396/34/1 345/35/1 344/36/1
f 396/33/1 397/34/1 346/35/1 345/36/1
f 397/33/1 398/34/1 347/35/1 346/36/1
f 398/33/1 399/34/1 348/35/1 347/36/1
f 399/33/1 400/34/1 349/35/1 348/36/1
f 400/33/1 401/34/1 350/35/1 349/36/1
f 401/33/1 402/34/1 351/35/1 350/36/1
f 402/33/1 403/34/1 352/35/1 351/36/1
f 403/33/1 404/34/1 353/35/1 352/36/1
f 404/33/1 405/34/1 354/35/1 353/36/1
f 405/33/1 406/34/1 355/35/1 354/36/1
f 406/33/1 407/34/1 356/35/1 355/36/1
f 407/33/1 408/34/1 357/35/1 356/36/1
f 408/33/1 409/34/1 358/35/1 357/36/1
f 409/33/1 410/34/1 359/35/1 358/36/1
f 410/33/1 411/34/1 360/35/1 359/36/1
f 411/33/1 412/34/1 361/35/1 360/36/1
f 412/33/1 413/34/1 362/35/1 361/36/1
f 413/33/1 414/34/1 363/35/1 362/36/1
f 414/33/1 415/34/1 364/35/1 363/36/1
f 415/13/1 416/14/1 365/15/1 364/16/1
f 417/37/1 418/38/1 367/39/1 366/40/1
f 418/41/1 419/42/1 368/43/1 367/44/1
f 419/41/1 420/42/1 369/43/1 368/44/1
f 420/41/1 421/42/1 370/43/1 369/44/1
f 421/41/1 422/42/1 371/43/1 370/44/1
f 422/41/1 423/42/1 372/43/1 371/44/1
f 423/41/1 424/42/1 373/43/1 372/44/1
f 424/41/1 425/42/1 374/43/1 373/44/1
f 425/41/1 426/42/1 375/43/1 374/44/1
f 426/41/1 427/42/1 376/43/1 375/44/1
f 427/41/1 428/42/1 377/43/1 376/44/1
f 428/41/1 429/42/1 378/43/1 377/44/1
f 429/41/1 430/42/1 379/43/1 378/44/1
f 430/41/1 431/42/1 380/43/1 379/44/1
f 431/41/1 432/42/1 381/43/1 380/44/1
f 432/41/1 433/42/1 382/43/1 381/44/1
f 433/41/1 434/42/1 383/43/1 382/44/1
f 434/41/1 435/42/1 384/43/1 383/44/1
f 435/41/1 436/42/1 385/43/1 384/44/1
f 436/41/1 437/42/1 386/43/1 385/44/1
f 437/41/1 438/42/1 387/43/1 386/44/1
f 438/41/1 439/42/1 388/43/1 387/44/1
f 439/41/1 440/42/1 389/43/1 388/44/1
f 440/41/1 441/42/1 390/43/1 389/44/1
f 441/41/1 442/42/1 391/43/1 390/44/1
f 442/41/1 443/42/1 392/43/1 391/44/1
f 443/41/1 444/42/1 393/43/1 392/44/1
f 444/41/1 445/42/1 394/43/1 393/44/1
f 445/41/1 446/42/1 395/43/1 394/44/1
f 446/41/1 447/42/1 396/43/1 395/44/1
f 447/41/1 448/42/1 397/43/1 396/44/1
f 448/41/1 449/42/1 398/43/1 397/44/1
f 449/41/1 450/42/1 399/43/1 398/44/1
f 450/41/1 451/42/1 400/43/1 399/44/1
f 451/41/1 452/42/1 401/43/1 400/44/1
f 452/41/1 453/42/1 402/43/1 401/44/1
f 453/41/1 454/42/1 403/43/1 402/44/1
f 454/41/1 455/42/1 404/43/1 403/44/1
f 455/41/1 456/42/1 405/43/1 404/44/1
f 456/41/1 457/42/1 406/43/1 405/44/1
f 457/41/1 458/42/1 407/43/1 406/44/1
f 458/41/1 459/42/1 408/43/1 407/44/1
f 459/41/1 460/42/1 409/43/1 408/44/1
f 460/41/1 461/42/1 410/43/1 409/44/1
f 461/41/1 462/42/1 411/43/1 410/44/1
f 462/41/1 463/42/1 412/43/1 411/44/1
f 463/41/1 464/42/1 413/43/1 412/44/1
f 464/41/1 465/42/1 414/43/1 413/44/1
f 465/41/1 466/42/1 415/43/1 414/44/1
f 466/45/1 467/46/1 416/47/1 415/48/1

