# Wavefront OBJ file automatically generated by Tiled2Unity

# Vertices (Count = 52)
v 0 -96 0
v -1 -96 0
v -1 -95 0
v 0 -95 0
v -2 -96 0
v -2 -95 0
v -3 -96 0
v -3 -95 0
v -4 -96 0
v -4 -95 0
v -5 -96 0
v -5 -95 0
v -6 -96 0
v -6 -95 0
v -7 -96 0
v -7 -95 0
v -8 -96 0
v -8 -95 0
v -9 -96 0
v -9 -95 0
v -10 -96 0
v -10 -95 0
v -11 -96 0
v -11 -95 0
v -12 -96 0
v -12 -95 0
v -13 -96 0
v -13 -95 0
v -14 -96 0
v -14 -95 0
v -15 -96 0
v -15 -95 0
v -16 -96 0
v -16 -95 0
v -17 -96 0
v -17 -95 0
v -18 -96 0
v -18 -95 0
v -19 -96 0
v -19 -95 0
v -20 -96 0
v -20 -95 0
v -21 -96 0
v -21 -95 0
v -22 -96 0
v -22 -95 0
v -23 -96 0
v -23 -95 0
v -24 -96 0
v -24 -95 0
v -25 -96 0
v -25 -95 0

# Texture cooridinates (Count = 12)
vt 0.2501221 0.8751221
vt 0.3123779 0.8751221
vt 0.3123779 0.9373779
vt 0.2501221 0.9373779
vt 0.3126221 0.8751221
vt 0.3748779 0.8751221
vt 0.3748779 0.9373779
vt 0.3126221 0.9373779
vt 0.3751221 0.8751221
vt 0.4373779 0.8751221
vt 0.4373779 0.9373779
vt 0.3751221 0.9373779

# Normal
vn 0 0 -1

# Groups (Count = 1)

g mesh_0001
f 1/1/1 2/2/1 3/3/1 4/4/1
f 2/5/1 5/6/1 6/7/1 3/8/1
f 5/5/1 7/6/1 8/7/1 6/8/1
f 7/5/1 9/6/1 10/7/1 8/8/1
f 9/5/1 11/6/1 12/7/1 10/8/1
f 11/5/1 13/6/1 14/7/1 12/8/1
f 13/5/1 15/6/1 16/7/1 14/8/1
f 15/5/1 17/6/1 18/7/1 16/8/1
f 17/5/1 19/6/1 20/7/1 18/8/1
f 19/5/1 21/6/1 22/7/1 20/8/1
f 21/5/1 23/6/1 24/7/1 22/8/1
f 23/5/1 25/6/1 26/7/1 24/8/1
f 25/5/1 27/6/1 28/7/1 26/8/1
f 27/5/1 29/6/1 30/7/1 28/8/1
f 29/5/1 31/6/1 32/7/1 30/8/1
f 31/5/1 33/6/1 34/7/1 32/8/1
f 33/5/1 35/6/1 36/7/1 34/8/1
f 35/5/1 37/6/1 38/7/1 36/8/1
f 37/5/1 39/6/1 40/7/1 38/8/1
f 39/5/1 41/6/1 42/7/1 40/8/1
f 41/5/1 43/6/1 44/7/1 42/8/1
f 43/5/1 45/6/1 46/7/1 44/8/1
f 45/5/1 47/6/1 48/7/1 46/8/1
f 47/5/1 49/6/1 50/7/1 48/8/1
f 49/9/1 51/10/1 52/11/1 50/12/1

